<?xml version="1.0" encoding="UTF-8"?>
<svg width="264px" height="264px" viewBox="0 0 264 264" version="1.1" xmlns="http://www.w3.org/2000/svg" xmlns:xlink="http://www.w3.org/1999/xlink">
    <!-- Generator: Sketch 53.2 (72643) - https://sketchapp.com -->
    <title>press</title>
    <desc>Created with Sketch.</desc>
    <g id="Page-1" stroke="none" stroke-width="1" fill="none" fill-rule="evenodd">
        <g id="Artboard" transform="translate(-400.000000, -706.000000)" fill="#FFFFFF" fill-rule="nonzero">
            <g id="home" transform="translate(426.000000, 742.000000)">
                <path d="M210.86255,97.3189206 L195.642085,82.6828739 L111.887142,2.14386165 C108.914075,-0.71462055 104.093993,-0.71462055 101.120925,2.14386165 L17.3655368,82.6828739 L2.13748715,97.3266427 C-0.783828553,100.235319 -0.70040063,104.870324 2.32441924,107.679471 C5.27518009,110.419976 9.95294356,110.419976 12.9037044,107.679471 L15.1268132,105.526707 L15.1268132,197.678116 C15.1268132,201.721948 18.5357584,205 22.7410611,205 L190.251392,205 C194.456694,205 197.865639,201.721948 197.865639,197.678116 L197.865639,105.526707 L200.096333,107.672178 C203.121152,110.481324 207.941234,110.40067 210.86255,107.492423 C213.712483,104.654962 213.712483,100.156381 210.86255,97.3189206 Z M128,189.744186 L83,189.744186 L83,131.581395 L128,131.581395 L128,189.744186 Z M182,190.697674 L144.000111,190.697674 L144.000111,124.479934 C144.000111,120.416338 140.597475,117.122264 136.399955,117.122264 L75.6000445,117.122264 C71.4025248,117.122264 67.9998887,120.416338 67.9998887,124.479934 L67.9998887,190.697674 L30,190.697674 L30,90.7382015 L105.999777,17.1627907 L182,90.7382015 L182,190.697674 Z" id="Shape"></path>
            </g>
        </g>
    </g>
</svg>