<svg xmlns="http://www.w3.org/2000/svg" width="1100" height="783" viewBox="0 0 1100 783">
    <defs>
        <linearGradient id="prefix__linear-gradient" x2="1" y1=".5" y2=".5" gradientUnits="objectBoundingBox">
            <stop offset="0" stop-color="#1d1c1d"/>
            <stop offset="1" stop-color="#262425"/>
        </linearGradient>
        <clipPath id="prefix__clip-path">
            <path id="prefix__패스_1306" d="M1645.927 674.571v.9a.36.36 0 0 1-.211.3 1.13 1.13 0 0 1-1.026 0 .363.363 0 0 1-.214-.3v-.9a.363.363 0 0 0 .214.3 1.132 1.132 0 0 0 1.026 0 .36.36 0 0 0 .211-.3z" class="prefix__cls-1" data-name="패스 1306" transform="translate(-1644.472 -674.567)"/>
        </clipPath>
        <style>
            .prefix__cls-1{fill:#252529}.prefix__cls-5{fill:#5f606e}.prefix__cls-7{fill:#f4f6fa}.prefix__cls-8{fill:#4d5264}.prefix__cls-9{fill:#d1d1d1}.prefix__cls-44,.prefix__cls-46{font-family:NotoSansCJKkr-Regular,Noto Sans CJK KR}.prefix__cls-15,.prefix__cls-44,.prefix__cls-46{isolation:isolate}.prefix__cls-14,.prefix__cls-46{fill:#fff}.prefix__cls-16{fill:#c2c3d0}.prefix__cls-18{fill:#424242}.prefix__cls-19{fill:#e0e2ea}.prefix__cls-22{fill:#1d1d20}.prefix__cls-25{fill:#ffd100}.prefix__cls-26,.prefix__cls-48{fill:none}.prefix__cls-26{stroke:#239df9;stroke-width:8px}.prefix__cls-27{fill:transparent;stroke:#e6e6e6;stroke-linecap:round;stroke-width:3px;stroke-dasharray:1 6;opacity:.71}.prefix__cls-28{fill:#28aeae}.prefix__cls-29{fill:#d1ccc0}.prefix__cls-30{fill:#606361}.prefix__cls-31{fill:#464544}.prefix__cls-32{fill:#343536}.prefix__cls-33{fill:#292b2b}.prefix__cls-34{fill:#434544}.prefix__cls-35{fill:#5c5d5b}.prefix__cls-36{fill:#aca795}.prefix__cls-37{fill:#ffc727}.prefix__cls-38{fill:#f0a600}.prefix__cls-39{fill:#e3ded6}.prefix__cls-40{fill:#343232}.prefix__cls-41{fill:#1d1c1d}.prefix__cls-42{fill:url(#prefix__linear-gradient)}.prefix__cls-43{fill:#262425}.prefix__cls-44,.prefix__cls-46{font-size:10px}.prefix__cls-45{fill:#717c90}.prefix__cls-47{stroke:none}
        </style>
    </defs>
    <g id="prefix__그룹_4265" data-name="그룹 4265" transform="translate(-290 -199)">
        <g id="prefix__그룹_3802" data-name="그룹 3802">
            <rect id="prefix__사각형_3197" width="1100" height="783" data-name="사각형 3197" rx="6" transform="translate(290 199)" style="fill:#242933"/>
            <g id="prefix__사각형_3208" data-name="사각형 3208" transform="translate(310 653)" style="fill:#191d27;stroke:#3c4353;stroke-width:5px">
                <rect width="186" height="269" class="prefix__cls-47" rx="6"/>
                <rect width="181" height="264" x="2.5" y="2.5" class="prefix__cls-48" rx="3.5"/>
            </g>
            <g id="prefix__사각형_3201" data-name="사각형 3201" transform="translate(310 219)" style="stroke-linejoin:round;fill:#191d27;stroke:#3c4353;stroke-width:5px">
                <rect width="1060" height="414" class="prefix__cls-47" rx="6"/>
                <rect width="1055" height="409" x="2.5" y="2.5" class="prefix__cls-48" rx="3.5"/>
            </g>
            <rect id="prefix__사각형_3209" width="16" height="100" class="prefix__cls-5" data-name="사각형 3209" rx="6" transform="translate(486 794)"/>
            <rect id="prefix__사각형_3202" width="16" height="160" class="prefix__cls-5" data-name="사각형 3202" rx="6" transform="rotate(-90 594.5 43.5)"/>
            <path id="prefix__사각형_3200" d="M0 0H23V252H0z" data-name="사각형 3200" transform="rotate(-90 776.5 205.5)" style="fill:#3d414e"/>
            <rect id="prefix__사각형_1459" width="100" height="170" class="prefix__cls-7" data-name="사각형 1459" rx="6" transform="translate(330 423)"/>
            <path id="prefix__사각형_1471" d="M6 0h88a6 6 0 0 1 6 6v34H0V6a6 6 0 0 1 6-6z" class="prefix__cls-8" data-name="사각형 1471" transform="translate(330 423)"/>
            <path id="prefix__사각형_3216" d="M0 0h100v44a6 6 0 0 1-6 6H6a6 6 0 0 1-6-6V0z" class="prefix__cls-9" data-name="사각형 3216" transform="translate(330 543)"/>
            <text id="prefix__총_공급량" data-name="총 공급량" transform="translate(357 561)" style="isolation:isolate;font-family:NotoSansCJKkr-Regular,Noto Sans CJK KR;font-size:12px">
                <tspan x="0" y="0">총 공급량</tspan>
            </text>
            <path id="prefix__패스_1250" d="M1562.257 726.85v-5.575l28.973 16.734v5.559z" class="prefix__cls-1" data-name="패스 1250" transform="translate(-1204.258 -207.569)"/>
            <path id="prefix__패스_1251" d="M1695.435 768.1l14.473-8.368v5.568l-14.473 8.353z" data-name="패스 1251" transform="translate(-1308.463 -237.656)" style="fill:#1a191d"/>
            <path id="prefix__패스_1252" d="M1562.257 537.461l14.473-8.356 28.973 16.723-14.473 8.37z" data-name="패스 1252" transform="translate(-1204.258 -57.205)" style="fill:#d9dadd"/>
            <path id="prefix__패스_1253" d="M1584.394 605.957l.007 19.385 19.352 11.173v-19.428z" data-name="패스 1253" transform="translate(-1221.578 -117.338)" style="fill:#abacc2"/>
            <path id="prefix__패스_1254" d="M1584.425 660.133l16.812-9.712 2.541 1.457v19.429z" class="prefix__cls-14" data-name="패스 1254" transform="translate(-1221.603 -152.128)"/>
            <path id="prefix__패스_1255" d="M1616.678 690.87v-.518a.5.5 0 0 0 .292.409v.518a.5.5 0 0 1-.292-.409z" class="prefix__cls-1" data-name="패스 1255" transform="translate(-1246.839 -183.372)"/>
            <path id="prefix__패스_1258" d="M1674.175 698.9v.518a.494.494 0 0 1-.289.4v-.518a.493.493 0 0 0 .289-.4z" class="prefix__cls-1" data-name="패스 1258" transform="translate(-1291.601 -190.064)"/>
            <path id="prefix__패스_1263" d="M1660.386 700.761v.518l-3.754 2.181v-.518z" class="prefix__cls-1" data-name="패스 1263" transform="translate(-1278.101 -191.517)"/>
            <path id="prefix__패스_1264" d="M1625.015 696.27v.518l-6.994-4.038v-.518z" class="prefix__cls-1" data-name="패스 1264" transform="translate(-1247.889 -184.844)"/>
            <path id="prefix__패스_1265" d="M1651.575 710.788v.518a1.549 1.549 0 0 1-1.406 0v-.518a1.55 1.55 0 0 0 1.406 0z" class="prefix__cls-1" data-name="패스 1265" transform="translate(-1273.043 -199.363)"/>
            <g id="prefix__그룹_2755" class="prefix__cls-15" data-name="그룹 2755" transform="translate(377.124 511.426)">
                <path id="prefix__패스_1266" d="M1655.845 710.788v.518a1.134 1.134 0 0 1-.219.1v-.518a1.138 1.138 0 0 0 .219-.1z" class="prefix__cls-1" data-name="패스 1266" transform="translate(-1654.438 -710.788)"/>
                <path id="prefix__패스_1267" d="M1653.375 711.23v.518a1.628 1.628 0 0 1-.626.067v-.518a1.634 1.634 0 0 0 .626-.067z" class="prefix__cls-1" data-name="패스 1267" transform="translate(-1652.187 -711.134)"/>
                <path id="prefix__패스_1268" d="M1650.73 710.956v.518a1.36 1.36 0 0 1-.562-.162v-.518a1.365 1.365 0 0 0 .561.162z" class="prefix__cls-1" data-name="패스 1268" transform="translate(-1650.167 -710.792)"/>
            </g>
            <path id="prefix__패스_1269" d="M1651.575 710.788v.518a1.549 1.549 0 0 1-1.406 0v-.518a1.55 1.55 0 0 0 1.406 0z" class="prefix__cls-1" data-name="패스 1269" transform="translate(-1273.043 -199.363)"/>
            <path id="prefix__패스_1270" d="M1629.126 681.894a.43.43 0 0 1 0 .813l-3.753 2.181a1.55 1.55 0 0 1-1.406 0l-6.994-4.038a.431.431 0 0 1 0-.815l3.753-2.181a1.548 1.548 0 0 1 1.4 0z" class="prefix__cls-16" data-name="패스 1270" transform="translate(-1246.845 -173.463)"/>
            <path id="prefix__패스_1271" d="M1661.078 699.914v.24l-1.346.782v-.24z" class="prefix__cls-1" data-name="패스 1271" transform="translate(-1280.526 -190.854)"/>
            <path id="prefix__패스_1272" d="M1644.152 694.515v.24l-4.332-2.5v-.24z" class="prefix__cls-1" data-name="패스 1272" transform="translate(-1264.946 -184.673)"/>
            <path id="prefix__패스_1273" d="M1645.5 690.919l-1.346.782-4.332-2.5 1.346-.782z" class="prefix__cls-14" data-name="패스 1273" transform="translate(-1264.949 -181.859)"/>
            <path id="prefix__패스_1274" d="M1659.948 697.89l-.4.231-.911-.526.4-.231z" class="prefix__cls-1" data-name="패스 1274" transform="translate(-1279.672 -188.858)"/>
            <path id="prefix__패스_1275" d="M1656.66 699.808l-.4.231-.911-.526.4-.231z" class="prefix__cls-1" data-name="패스 1275" transform="translate(-1277.099 -190.359)"/>
            <path id="prefix__패스_1276" d="M1654.878 694.921l-.4.231-.911-.526.4-.231z" class="prefix__cls-1" data-name="패스 1276" transform="translate(-1275.705 -186.536)"/>
            <path id="prefix__패스_1277" d="M1651.589 696.839l-.4.231-.911-.526.4-.231z" class="prefix__cls-1" data-name="패스 1277" transform="translate(-1273.132 -188.037)"/>
            <path id="prefix__패스_1278" d="M1650.15 692.067l-.4.231-.912-.526.4-.231z" class="prefix__cls-1" data-name="패스 1278" transform="translate(-1272.005 -184.302)"/>
            <path id="prefix__패스_1279" d="M1646.861 693.985l-.4.231-.911-.526.4-.231z" class="prefix__cls-1" data-name="패스 1279" transform="translate(-1269.432 -185.803)"/>
            <path id="prefix__패스_1280" d="M1653.269 705.587v.259l-1.458.847v-.259z" class="prefix__cls-1" data-name="패스 1280" transform="translate(-1274.328 -195.293)"/>
            <path id="prefix__패스_1281" d="M1625.613 694.357v.259l-7.284-4.205v-.259z" class="prefix__cls-1" data-name="패스 1281" transform="translate(-1248.131 -183.215)"/>
            <path id="prefix__패스_1282" d="M1627.074 690.461l-1.458.847-7.284-4.205 1.458-.847z" class="prefix__cls-14" data-name="패스 1282" transform="translate(-1248.134 -180.167)"/>
            <path id="prefix__패스_1283" d="M1624.551 687.613l-.4.231-.911-.526.4-.231z" class="prefix__cls-1" data-name="패스 1283" transform="translate(-1251.975 -180.817)"/>
            <path id="prefix__패스_1284" d="M1621.262 689.531l-.4.231-.912-.526.4-.231z" class="prefix__cls-1" data-name="패스 1284" transform="translate(-1249.402 -182.318)"/>
            <path id="prefix__패스_1285" d="M1625.4 690.688l.4.231.911-.526-.4-.231z" class="prefix__cls-1" data-name="패스 1285" transform="translate(-1253.667 -183.224)"/>
            <path id="prefix__패스_1286" d="M1642.837 683.46v.259l-1.458.847v-.259z" class="prefix__cls-1" data-name="패스 1286" transform="translate(-1266.166 -177.98)"/>
            <path id="prefix__패스_1287" d="M1633.727 682.938v.259l-2.128-1.228v-.259z" class="prefix__cls-1" data-name="패스 1287" transform="translate(-1258.514 -176.61)"/>
            <path id="prefix__패스_1288" d="M1635.188 679.042l-1.458.848-2.127-1.228 1.458-.847z" class="prefix__cls-14" data-name="패스 1288" transform="translate(-1258.517 -173.562)"/>
            <path id="prefix__패스_1289" d="M1639.477 682.851l.4.231.911-.526-.4-.231z" class="prefix__cls-1" data-name="패스 1289" transform="translate(-1264.678 -177.091)"/>
            <path id="prefix__패스_1290" d="M1636.967 681.3l.4.231.911-.526-.4-.231z" class="prefix__cls-1" data-name="패스 1290" transform="translate(-1262.714 -175.881)"/>
            <path id="prefix__패스_1291" d="M1634.387 679.79l.4.231.912-.526-.4-.231z" class="prefix__cls-1" data-name="패스 1291" transform="translate(-1260.696 -174.697)"/>
            <path id="prefix__패스_1292" d="M1647.321 674.952l-.01 3.383a.077.077 0 0 1-.045.063.241.241 0 0 1-.218 0 .078.078 0 0 1-.045-.064l.01-3.383a.078.078 0 0 0 .046.064.241.241 0 0 0 .218 0 .078.078 0 0 0 .044-.063z" class="prefix__cls-1" data-name="패스 1292" transform="translate(-1270.567 -171.322)"/>
            <path id="prefix__패스_1299" d="M1647.31 674.569a.067.067 0 0 1 0 .127.242.242 0 0 1-.219 0 .067.067 0 0 1 0-.127.243.243 0 0 1 .219 0z" class="prefix__cls-1" data-name="패스 1299" transform="translate(-1270.601 -171.002)"/>
            <path id="prefix__패스_1300" d="M1645.927 674.571v.9a.36.36 0 0 1-.211.3 1.13 1.13 0 0 1-1.026 0 .363.363 0 0 1-.214-.3v-.9a.363.363 0 0 0 .214.3 1.132 1.132 0 0 0 1.026 0 .36.36 0 0 0 .211-.3z" class="prefix__cls-1" data-name="패스 1300" transform="translate(-1268.587 -171.021)"/>
            <g id="prefix__그룹_2793" data-name="그룹 2793" transform="translate(375.885 503.546)">
                <g id="prefix__그룹_2792" class="prefix__cls-15" data-name="그룹 2792">
                    <path id="prefix__패스_1301" d="M1651.13 674.587v.9a.235.235 0 0 1 0 .048v-.9a.265.265 0 0 0 0-.048z" class="prefix__cls-1" data-name="패스 1301" transform="translate(-1649.676 -674.583)"/>
                    <path id="prefix__패스_1302" d="M1650.416 674.807v.9a.385.385 0 0 1-.2.242v-.9a.386.386 0 0 0 .2-.242z" class="prefix__cls-1" data-name="패스 1302" transform="translate(-1648.966 -674.755)"/>
                    <path id="prefix__패스_1303" d="M1649.615 675.919v.9l-.009.005a.814.814 0 0 1-.159.07v-.9a.824.824 0 0 0 .159-.07l.009-.005z" class="prefix__cls-1" data-name="패스 1303" transform="translate(-1648.362 -675.625)"/>
                    <path id="prefix__패스_1304" d="M1647.806 676.265v.9a1.188 1.188 0 0 1-.456.049v-.9a1.2 1.2 0 0 0 .456-.049z" class="prefix__cls-1" data-name="패스 1304" transform="translate(-1646.722 -675.896)"/>
                    <path id="prefix__패스_1305" d="M1645.1 674.985v.9a1 1 0 0 1-.411-.119.363.363 0 0 1-.214-.3v-.9a.363.363 0 0 0 .214.3 1 1 0 0 0 .411.119z" class="prefix__cls-1" data-name="패스 1305" transform="translate(-1644.472 -674.567)"/>
                </g>
            </g>
            <path id="prefix__패스_1307" d="M1645.722 672.768a.314.314 0 0 1 0 .595 1.133 1.133 0 0 1-1.027 0 .314.314 0 0 1 0-.595 1.131 1.131 0 0 1 1.027 0z" class="prefix__cls-1" data-name="패스 1307" transform="translate(-1268.596 -169.517)"/>
            <path id="prefix__패스_1308" d="M1648.989 654.613l-.013 4.511-1.12.651.013-4.511z" class="prefix__cls-18" data-name="패스 1308" transform="translate(-1271.234 -155.408)"/>
            <path id="prefix__패스_1309" d="M1643.809 655.263l-.013 4.511-1.129-.652.013-4.511z" class="prefix__cls-1" data-name="패스 1309" transform="translate(-1267.174 -155.407)"/>
            <path id="prefix__패스_1310" d="M1609.647 629.372l18.229 10.593a.345.345 0 0 0-.348.034l-18.228-10.594a.345.345 0 0 1 .347-.033z" class="prefix__cls-1" data-name="패스 1310" transform="translate(-1241.065 -135.632)"/>
            <g id="prefix__그룹_2802" class="prefix__cls-15" data-name="그룹 2802" transform="translate(368.234 493.706)">
                <path id="prefix__패스_1311" d="M1627.528 640l-18.228-10.595a.429.429 0 0 1 .238-.066l18.229 10.594a.428.428 0 0 0-.238.066z" class="prefix__cls-1" data-name="패스 1311" transform="translate(-1609.299 -629.338)"/>
                <path id="prefix__패스_1312" d="M1628.62 639.934l-18.229-10.593a.247.247 0 0 1 .11.032l18.229 10.593a.251.251 0 0 0-.11-.032z" class="prefix__cls-1" data-name="패스 1312" transform="translate(-1610.154 -629.34)"/>
            </g>
            <path id="prefix__패스_1313" d="M1609.647 629.372l18.229 10.593a.345.345 0 0 0-.348.034l-18.228-10.594a.345.345 0 0 1 .347-.033z" class="prefix__cls-1" data-name="패스 1313" transform="translate(-1241.065 -135.632)"/>
            <path id="prefix__패스_1314" d="M1625.426 641.4l-18.226-10.6a.344.344 0 0 1-.143-.314 1.076 1.076 0 0 1 .488-.845l18.229 10.594a1.075 1.075 0 0 0-.488.845.343.343 0 0 0 .14.32z" class="prefix__cls-1" data-name="패스 1314" transform="translate(-1239.309 -135.873)"/>
            <g id="prefix__그룹_2805" class="prefix__cls-15" data-name="그룹 2805" transform="translate(367.745 493.773)">
                <path id="prefix__패스_1315" d="M1625.426 643.3l-18.226-10.591a.344.344 0 0 1-.143-.314.881.881 0 0 1 .063-.315l18.229 10.593a.887.887 0 0 0-.063.315.343.343 0 0 0 .143.314z" class="prefix__cls-1" data-name="패스 1315" transform="translate(-1607.054 -631.55)"/>
                <path id="prefix__패스_1316" d="M1625.574 641.917l-18.229-10.593a1.182 1.182 0 0 1 .107-.21l18.229 10.593a1.165 1.165 0 0 0-.107.21z" class="prefix__cls-1" data-name="패스 1316" transform="translate(-1607.282 -630.794)"/>
                <path id="prefix__패스_1317" d="M1626.065 640.559l-18.229-10.593a.967.967 0 0 1 .318-.319l18.229 10.594a.971.971 0 0 0-.318.319z" class="prefix__cls-1" data-name="패스 1317" transform="translate(-1607.666 -629.646)"/>
            </g>
            <path id="prefix__패스_1318" d="M1625.426 641.4l-18.226-10.6a.344.344 0 0 1-.143-.314 1.076 1.076 0 0 1 .488-.845l18.229 10.594a1.075 1.075 0 0 0-.488.845.343.343 0 0 0 .14.32z" class="prefix__cls-1" data-name="패스 1318" transform="translate(-1239.309 -135.873)"/>
            <path id="prefix__패스_1319" d="M1691.333 678.1c.27-.156.489-.031.49.28a1.075 1.075 0 0 1-.487.845c-.271.156-.49.031-.491-.28a1.075 1.075 0 0 1 .488-.845z" class="prefix__cls-1" data-name="패스 1319" transform="translate(-1304.871 -173.733)"/>
            <path id="prefix__패스_1320" d="M1562.257 600.966v-33.45l4.814 2.789.008 33.452z" class="prefix__cls-19" data-name="패스 1320" transform="translate(-1204.258 -87.259)"/>
            <path id="prefix__패스_1321" d="M1562.257 567.516v5.584l28.963 16.722.011-5.567z" class="prefix__cls-19" data-name="패스 1321" transform="translate(-1204.258 -87.259)"/>
            <path id="prefix__패스_1322" d="M1562.257 690.759v-8.493l28.973 16.728v8.492z" class="prefix__cls-19" data-name="패스 1322" transform="translate(-1204.258 -177.046)"/>
            <path id="prefix__패스_1323" d="M1678.18 634.487l-4.8-2.77v33.447l4.8 2.77z" class="prefix__cls-19" data-name="패스 1323" transform="translate(-1291.207 -137.493)"/>
            <path id="prefix__패스_1324" d="M1695.435 647.792l14.473-8.368v-33.449l-14.473 8.37z" class="prefix__cls-16" data-name="패스 1324" transform="translate(-1308.463 -117.352)"/>
            <path id="prefix__패스_1325" d="M1703.812 797.425a.222.222 0 0 1 0 .2.373.373 0 0 1-.15.186l-2.762 1.589c-.063.036-.119.032-.151-.012a.221.221 0 0 1 0-.2l1.371-3.541a.376.376 0 0 1 .15-.187c.062-.036.119-.031.151.013zm-1.366.314l.045-1.449-.425.246.043 1.4.338-.195zm.018.45v-.31c0-.037-.019-.056-.054-.036l-.266.154a.111.111 0 0 0-.055.1v.31c0 .037.024.048.056.029l.266-.154a.1.1 0 0 0 .053-.092z" data-name="패스 1325" transform="translate(-1312.606 -265.598)" style="fill:#c5a200"/>
            <path id="prefix__패스_1326" d="M1703.481 796.736a.372.372 0 0 1 0 .338.636.636 0 0 1-.254.316l-2.758 1.592c-.106.062-.2.053-.255-.022a.373.373 0 0 1 0-.338l1.371-3.541a.632.632 0 0 1 .254-.316c.106-.061.2-.053.255.022zm-.1.329a.222.222 0 0 0 0-.2l-1.387-1.948c-.032-.044-.088-.049-.151-.013a.377.377 0 0 0-.15.187l-1.371 3.541a.222.222 0 0 0 0 .2c.032.044.088.049.151.012l2.758-1.592a.371.371 0 0 0 .15-.186z" data-name="패스 1326" transform="translate(-1312.171 -265.039)" style="fill:#141316"/>
            <path id="prefix__패스_1327" d="M1707.289 806.454c.035-.02.053 0 .053.036v.31a.1.1 0 0 1-.053.092l-.266.154c-.032.018-.055.008-.056-.029v-.31a.111.111 0 0 1 .055-.1z" class="prefix__cls-22" data-name="패스 1327" transform="translate(-1317.487 -274.209)"/>
            <path id="prefix__패스_1328" d="M1707.244 800.794l-.337.195-.043-1.4.425-.246z" class="prefix__cls-22" data-name="패스 1328" transform="translate(-1317.405 -268.654)"/>
            <path id="prefix__패스_1329" d="M1712.256 689.586l-.749-.435.021 7.294.749.435z" class="prefix__cls-1" data-name="패스 1329" transform="translate(-1321.038 -182.433)"/>
            <path id="prefix__패스_1330" d="M1720.326 668.17l-.749-.435-8.07 4.659.749.435z" data-name="패스 1330" transform="translate(-1321.038 -165.676)" style="fill:#494949"/>
            <path id="prefix__패스_1331" d="M1714.951 674.4l.021 7.294 8.07-4.659-.021-7.294z" class="prefix__cls-18" data-name="패스 1331" transform="translate(-1323.733 -167.241)"/>
            <path id="prefix__패스_1332" d="M1717.459 677.861l.017 6.066 7.012-4.049-.017-6.066z" class="prefix__cls-14" data-name="패스 1332" transform="translate(-1325.696 -170.431)"/>
            <path id="prefix__패스_1333" d="M1733.82 679.1l.008 2.9 3-1.734-.008-2.9z" data-name="패스 1333" transform="translate(-1338.497 -173.21)" style="fill:#117488"/>
            <path id="prefix__패스_1334" d="M1727.094 687.42a1.1 1.1 0 0 0-.5.862c0 .317.225.445.5.285a1.1 1.1 0 0 0 .5-.862c0-.316-.224-.444-.5-.285z" class="prefix__cls-25" data-name="패스 1334" transform="translate(-1332.844 -181.025)"/>
            <path id="prefix__패스_1335" d="M1720.07 691.268a1.1 1.1 0 0 0-.5.862c0 .317.226.445.5.285a1.1 1.1 0 0 0 .5-.862c0-.316-.224-.444-.5-.285z" class="prefix__cls-25" data-name="패스 1335" transform="translate(-1327.348 -184.036)"/>
            <path id="prefix__패스_1336" d="M1728.856 693.843v.911l.793-.458v-.911z" class="prefix__cls-1" data-name="패스 1336" transform="translate(-1334.613 -185.746)"/>
            <path id="prefix__패스_1337" d="M1724.214 696.409v.911l.792-.458v-.911z" class="prefix__cls-1" data-name="패스 1337" transform="translate(-1330.981 -187.753)"/>
            <path id="prefix__패스_1338" d="M1719.287 699.137v.911l.793-.458v-.911z" class="prefix__cls-1" data-name="패스 1338" transform="translate(-1327.125 -189.888)"/>
            <path id="prefix__패스_1339" d="M1743.922 695.106v.911l.793-.458v-.911z" class="prefix__cls-1" data-name="패스 1339" transform="translate(-1346.401 -186.734)"/>
            <path id="prefix__패스_1340" d="M1739.28 697.671v.911l.793-.458v-.911z" class="prefix__cls-1" data-name="패스 1340" transform="translate(-1342.769 -188.741)"/>
            <path id="prefix__패스_1341" d="M1734.353 700.4v.911l.793-.458v-.911z" class="prefix__cls-1" data-name="패스 1341" transform="translate(-1338.914 -190.876)"/>
            <path id="prefix__패스_1342" d="M1729.63 703.128v.911l.793-.458v-.911z" class="prefix__cls-1" data-name="패스 1342" transform="translate(-1335.218 -193.01)"/>
            <path id="prefix__패스_1343" d="M1724.988 705.693v.911l.793-.458v-.911z" class="prefix__cls-1" data-name="패스 1343" transform="translate(-1331.586 -195.018)"/>
            <path id="prefix__패스_1344" d="M1720.061 708.421v.911l.793-.458v-.911z" class="prefix__cls-1" data-name="패스 1344" transform="translate(-1327.731 -197.152)"/>
            <path id="prefix__패스_1345" d="M1562.257 567.516l28.973 16.737V617.7l-28.973-16.728z" class="prefix__cls-19" data-name="패스 1345" transform="translate(-1204.258 -87.259)"/>
            <path id="prefix__선_117" d="M0 0L810.799 0" class="prefix__cls-26" data-name="선 117" transform="translate(430.201 506.001)"/>
            <path id="prefix__선_119" d="M0 0L810.799 0" class="prefix__cls-27" data-name="선 119" transform="translate(430.201 506.001)"/>
            <rect id="prefix__사각형_1459-2" width="100" height="170" class="prefix__cls-7" data-name="사각형 1459" rx="6" transform="translate(1241 423)"/>
            <path id="prefix__사각형_1471-2" d="M6 0h88a6 6 0 0 1 6 6v34H0V6a6 6 0 0 1 6-6z" class="prefix__cls-28" data-name="사각형 1471" transform="translate(1241 423)"/>
            <path id="prefix__패스_1013" d="M292.218 468.927l-12.534 8.32v5.583l-12.505 8.3v11.17l12.534-8.315V488.4l12.505-8.3z" class="prefix__cls-29" data-name="패스 1013" transform="translate(1003.938 23.781)"/>
            <path id="prefix__패스_1014" d="M269.062 488.888l22.469-14.845 16.034 6.909L285.155 496z" class="prefix__cls-30" data-name="패스 1014" transform="translate(1005.011 26.696)"/>
            <path id="prefix__패스_1015" d="M269.062 483.5v1.737l15.816 7.113v-1.737z" class="prefix__cls-31" data-name="패스 1015" transform="translate(1005.011 32.084)"/>
            <path id="prefix__패스_1016" d="M292.571 474.692l-22.083 14.845v.253l.45.2v-.253l22.083-14.845z" class="prefix__cls-32" data-name="패스 1016" transform="translate(1005.823 27.066)"/>
            <path id="prefix__패스_1017" d="M270.486 489.788v-.25l22.083-14.845v.25z" class="prefix__cls-33" data-name="패스 1017" transform="translate(1005.823 27.066)"/>
            <path id="prefix__패스_1018" d="M293.695 475.2l-22.083 14.845v.253l.45.2v-.253l22.083-14.845z" class="prefix__cls-32" data-name="패스 1018" transform="translate(1006.464 27.354)"/>
            <path id="prefix__패스_1019" d="M271.61 490.293v-.25L293.7 475.2v.25z" class="prefix__cls-33" data-name="패스 1019" transform="translate(1006.463 27.354)"/>
            <path id="prefix__패스_1020" d="M294.818 475.692l-22.083 14.845v.253l.45.2v-.253l22.083-14.845z" class="prefix__cls-32" data-name="패스 1020" transform="translate(1007.353 27.635)"/>
            <path id="prefix__패스_1021" d="M272.734 490.787v-.25l22.083-14.845v.25z" class="prefix__cls-33" data-name="패스 1021" transform="translate(1007.352 27.635)"/>
            <path id="prefix__패스_1022" d="M295.942 476.2l-22.083 14.85v.253l.45.2v-.253l22.083-14.845z" class="prefix__cls-32" data-name="패스 1022" transform="translate(1008.069 27.927)"/>
            <path id="prefix__패스_1023" d="M273.857 491.3v-.25l22.086-14.85v.25z" class="prefix__cls-33" data-name="패스 1023" transform="translate(1008.068 27.927)"/>
            <path id="prefix__패스_1024" d="M297.066 476.708l-22.083 14.845v.253l.45.2v-.253l22.083-14.845z" class="prefix__cls-32" data-name="패스 1024" transform="translate(1008.786 28.215)"/>
            <path id="prefix__패스_1025" d="M274.981 491.8v-.25l22.083-14.845v.25z" class="prefix__cls-33" data-name="패스 1025" transform="translate(1008.785 28.215)"/>
            <path id="prefix__패스_1026" d="M298.189 477.217l-22.083 14.845v.253l.45.2v-.253l22.083-14.845z" class="prefix__cls-32" data-name="패스 1026" transform="translate(1009.686 28.504)"/>
            <path id="prefix__패스_1027" d="M276.1 492.313v-.25l22.083-14.845v.25z" class="prefix__cls-33" data-name="패스 1027" transform="translate(1009.685 28.504)"/>
            <path id="prefix__패스_1028" d="M300.437 478.223l-22.083 14.845v.253l.45.2v-.253l22.083-14.845z" class="prefix__cls-32" data-name="패스 1028" transform="translate(1010.966 29.078)"/>
            <path id="prefix__패스_1029" d="M278.352 493.319v-.25l22.083-14.845v.25z" class="prefix__cls-33" data-name="패스 1029" transform="translate(1010.965 29.078)"/>
            <path id="prefix__패스_1030" d="M299.313 477.72l-22.083 14.846v.253l.45.2v-.253l22.083-14.845z" class="prefix__cls-32" data-name="패스 1030" transform="translate(1010.326 28.791)"/>
            <path id="prefix__패스_1031" d="M277.228 492.816v-.25l22.083-14.845v.25z" class="prefix__cls-33" data-name="패스 1031" transform="translate(1010.325 28.791)"/>
            <path id="prefix__패스_1032" d="M291.448 474.179l-22.083 14.845v.253l.45.2v-.253l22.085-14.842z" class="prefix__cls-32" data-name="패스 1032" transform="translate(1005.183 26.774)"/>
            <path id="prefix__패스_1033" d="M269.363 489.275v-.25l22.083-14.845v.25z" class="prefix__cls-33" data-name="패스 1033" transform="translate(1005.182 26.774)"/>
            <path id="prefix__패스_1034" d="M293.886 481.278v-1.7l-12.534 8.016v2.08z" class="prefix__cls-33" data-name="패스 1034" transform="translate(1012.675 29.848)"/>
            <path id="prefix__패스_1035" d="M273.236 481.155v1.787l12.741 5.829v-1.787z" class="prefix__cls-34" data-name="패스 1035" transform="translate(1008.051 30.748)"/>
            <path id="prefix__패스_1036" d="M285.769 475.861l-12.533 8.339 12.741 5.829 12.534-8.337z" class="prefix__cls-35" data-name="패스 1036" transform="translate(1008.051 27.732)"/>
            <path id="prefix__패스_1037" d="M273.815 467.179v15.677l2.117.952v-15.677z" class="prefix__cls-36" data-name="패스 1037" transform="translate(1007.92 22.785)"/>
            <path id="prefix__패스_1038" d="M271.209 473.241v1.936l17.6 7.854v-1.936z" class="prefix__cls-37" data-name="패스 1038" transform="translate(1006.451 26.239)"/>
            <path id="prefix__패스_1039" d="M290.862 474.517v1.936l-8.443 5.85v-1.936z" class="prefix__cls-38" data-name="패스 1039" transform="translate(1013.115 26.966)"/>
            <path id="prefix__패스_1040" d="M265.831 493.633l2.117.954v-11.172l-2.117-.952z" class="prefix__cls-36" data-name="패스 1040" transform="translate(1003.17 31.493)"/>
            <path id="prefix__패스_1041" d="M267.948 464.535l-2.117-.954v13.961l2.117.952z" class="prefix__cls-36" data-name="패스 1041" transform="translate(1003.17 20.736)"/>
            <path id="prefix__패스_1042" d="M278.364 477.166l2.117.952-12.534 8.315-2.117-.952z" class="prefix__cls-39" data-name="패스 1042" transform="translate(1003.17 28.475)"/>
            <path id="prefix__패스_1043" d="M290.5 479.878l-17.6-7.854-1.69 1.909 17.6 7.854z" class="prefix__cls-40" data-name="패스 1043" transform="translate(1006.466 25.546)"/>
            <path id="prefix__패스_1044" d="M279.713 472.742l-12.533 8.488v-13.961l12.534-8.488z" class="prefix__cls-29" data-name="패스 1044" transform="translate(1003.938 18.001)"/>
            <path id="prefix__패스_1045" d="M272.286 465.291v10.569l17.6 7.854v-10.569z" class="prefix__cls-41" data-name="패스 1045" transform="translate(1007.108 21.71)"/>
            <path id="prefix__패스_1046" d="M269.062 491.4l15.816 7.113v-6.8l-15.816-7.113z" class="prefix__cls-42" data-name="패스 1046" transform="translate(1005.011 32.714)"/>
            <path id="prefix__패스_1047" d="M282.491 473.755l6.621-4.411-17.712-7.965v10.569l11.091 4.988v-3.179" class="prefix__cls-36" data-name="패스 1047" transform="translate(1006.568 19.481)"/>
            <path id="prefix__패스_1048" d="M287.547 454.461l-21.717 14.317 2.151.953 6.722-4.411 17.984 7.966-6.722 4.411 2.148.951 21.717-14.317z" class="prefix__cls-39" data-name="패스 1048" transform="translate(1003.17 15.54)"/>
            <path id="prefix__패스_1049" d="M280.581 470.218l-2.117-.954v13.961l2.117.952z" class="prefix__cls-36" data-name="패스 1049" transform="translate(1010.686 23.973)"/>
            <path id="prefix__패스_1050" d="M286.448 472.861v15.677l2.117.952v-15.677z" class="prefix__cls-36" data-name="패스 1050" transform="translate(1015.436 26.023)"/>
            <path id="prefix__패스_1051" d="M278.464 499.316l2.117.954V489.1l-2.117-.952z" class="prefix__cls-36" data-name="패스 1051" transform="translate(1010.686 34.73)"/>
            <path id="prefix__패스_1052" d="M291 482.848l2.117.952-12.534 8.315-2.117-.952z" class="prefix__cls-39" data-name="패스 1052" transform="translate(1010.825 31.713)"/>
            <path id="prefix__패스_1053" d="M282.419 481.026l6.325-4.383v-3.283l-4.635 3.833v1.923z" class="prefix__cls-43" data-name="패스 1053" transform="translate(1013.086 26.307)"/>
            <path id="prefix__패스_1054" d="M279.813 475.066v13.958l12.533-8.393v15.683l-12.533 8.393v11.169l21.39-14.317v-40.81z" class="prefix__cls-29" data-name="패스 1054" transform="translate(1011.798 19.122)"/>
            <path id="prefix__패스_1055" d="M269.549 486.4a.233.233 0 0 1-.093-.108.1.1 0 0 1 0-.108l.562-.65c.019-.024.055-.024.094 0a.237.237 0 0 1 .094.108l.562 1.3a.109.109 0 0 1 0 .108c-.02.022-.055.022-.094 0z" class="prefix__cls-43" data-name="패스 1055" transform="translate(1005.227 33.234)"/>
            <path id="prefix__패스_1056" d="M269.484 486.224l.562-.648c.013-.014.042 0 .053.03l.564 1.3c.011.027 0 .044-.027.031l-1.125-.65c-.024-.014-.04-.049-.027-.063z" class="prefix__cls-38" data-name="패스 1056" transform="translate(1005.249 33.263)"/>
            <path id="prefix__패스_1057" d="M269.847 486.2a.06.06 0 0 1-.025-.038l-.031-.4c-.011-.14.19-.009.179.1l-.031.359c0 .014-.013.017-.025.009zm.033.1c-.041-.025-.075-.011-.075.031a.157.157 0 0 0 .075.118c.041.024.075.009.075-.031a.157.157 0 0 0-.075-.112z" class="prefix__cls-43" data-name="패스 1057" transform="translate(1005.426 33.342)"/>
            <path id="prefix__사각형_3216-2" d="M0 0h100v44a6 6 0 0 1-6 6H6a6 6 0 0 1-6-6V0z" class="prefix__cls-9" data-name="사각형 3216" transform="translate(1241 543)"/>
            <text id="prefix__사용률" class="prefix__cls-44" transform="translate(1251 561)">
                <tspan x="0" y="0">사용률</tspan>
            </text>
            <text id="prefix__전류량" class="prefix__cls-44" transform="translate(1251 581)">
                <tspan x="0" y="0">전류량</tspan>
            </text>
            <path id="prefix__선_117-2" d="M0 0L40 0" class="prefix__cls-26" data-name="선 117" transform="rotate(-90 507.101 -44.101)"/>
            <path id="prefix__선_119-2" d="M0 0L40 0" class="prefix__cls-27" data-name="선 119" transform="rotate(-90 507.101 -44.101)"/>
            <rect id="prefix__사각형_1459-3" width="100" height="170" class="prefix__cls-7" data-name="사각형 1459" rx="6" transform="translate(501 253)"/>
            <path id="prefix__사각형_1471-3" d="M6 0h88a6 6 0 0 1 6 6v34H0V6a6 6 0 0 1 6-6z" class="prefix__cls-28" data-name="사각형 1471" transform="translate(501 253)"/>
            <path id="prefix__패스_1013-2" d="M292.218 468.927l-12.534 8.32v5.583l-12.505 8.3v11.17l12.534-8.315V488.4l12.505-8.3z" class="prefix__cls-29" data-name="패스 1013" transform="translate(263.938 -146.219)"/>
            <path id="prefix__패스_1014-2" d="M269.062 488.888l22.469-14.845 16.034 6.909L285.155 496z" class="prefix__cls-30" data-name="패스 1014" transform="translate(265.011 -143.304)"/>
            <path id="prefix__패스_1015-2" d="M269.062 483.5v1.737l15.816 7.113v-1.737z" class="prefix__cls-31" data-name="패스 1015" transform="translate(265.011 -137.916)"/>
            <path id="prefix__패스_1016-2" d="M292.571 474.692l-22.083 14.845v.253l.45.2v-.253l22.083-14.845z" class="prefix__cls-32" data-name="패스 1016" transform="translate(265.823 -142.934)"/>
            <path id="prefix__패스_1017-2" d="M270.486 489.788v-.25l22.083-14.845v.25z" class="prefix__cls-33" data-name="패스 1017" transform="translate(265.823 -142.934)"/>
            <path id="prefix__패스_1018-2" d="M293.695 475.2l-22.083 14.845v.253l.45.2v-.253l22.083-14.845z" class="prefix__cls-32" data-name="패스 1018" transform="translate(266.463 -142.646)"/>
            <path id="prefix__패스_1019-2" d="M271.61 490.293v-.25L293.7 475.2v.25z" class="prefix__cls-33" data-name="패스 1019" transform="translate(266.463 -142.646)"/>
            <path id="prefix__패스_1020-2" d="M294.818 475.692l-22.083 14.845v.253l.45.2v-.253l22.083-14.845z" class="prefix__cls-32" data-name="패스 1020" transform="translate(267.353 -142.365)"/>
            <path id="prefix__패스_1021-2" d="M272.734 490.787v-.25l22.083-14.845v.25z" class="prefix__cls-33" data-name="패스 1021" transform="translate(267.352 -142.365)"/>
            <path id="prefix__패스_1022-2" d="M295.942 476.2l-22.083 14.85v.253l.45.2v-.253l22.083-14.845z" class="prefix__cls-32" data-name="패스 1022" transform="translate(268.069 -142.073)"/>
            <path id="prefix__패스_1023-2" d="M273.857 491.3v-.25l22.086-14.85v.25z" class="prefix__cls-33" data-name="패스 1023" transform="translate(268.068 -142.073)"/>
            <path id="prefix__패스_1024-2" d="M297.066 476.708l-22.083 14.845v.253l.45.2v-.253l22.083-14.845z" class="prefix__cls-32" data-name="패스 1024" transform="translate(268.786 -141.785)"/>
            <path id="prefix__패스_1025-2" d="M274.981 491.8v-.25l22.083-14.845v.25z" class="prefix__cls-33" data-name="패스 1025" transform="translate(268.785 -141.785)"/>
            <path id="prefix__패스_1026-2" d="M298.189 477.217l-22.083 14.845v.253l.45.2v-.253l22.083-14.845z" class="prefix__cls-32" data-name="패스 1026" transform="translate(269.686 -141.496)"/>
            <path id="prefix__패스_1027-2" d="M276.1 492.313v-.25l22.083-14.845v.25z" class="prefix__cls-33" data-name="패스 1027" transform="translate(269.685 -141.496)"/>
            <path id="prefix__패스_1028-2" d="M300.437 478.223l-22.083 14.845v.253l.45.2v-.253l22.083-14.845z" class="prefix__cls-32" data-name="패스 1028" transform="translate(270.966 -140.922)"/>
            <path id="prefix__패스_1029-2" d="M278.352 493.319v-.25l22.083-14.845v.25z" class="prefix__cls-33" data-name="패스 1029" transform="translate(270.965 -140.922)"/>
            <path id="prefix__패스_1030-2" d="M299.313 477.72l-22.083 14.846v.253l.45.2v-.253l22.083-14.845z" class="prefix__cls-32" data-name="패스 1030" transform="translate(270.326 -141.209)"/>
            <path id="prefix__패스_1031-2" d="M277.228 492.816v-.25l22.083-14.845v.25z" class="prefix__cls-33" data-name="패스 1031" transform="translate(270.325 -141.209)"/>
            <path id="prefix__패스_1032-2" d="M291.448 474.179l-22.083 14.845v.253l.45.2v-.253l22.085-14.842z" class="prefix__cls-32" data-name="패스 1032" transform="translate(265.183 -143.226)"/>
            <path id="prefix__패스_1033-2" d="M269.363 489.275v-.25l22.083-14.845v.25z" class="prefix__cls-33" data-name="패스 1033" transform="translate(265.182 -143.226)"/>
            <path id="prefix__패스_1034-2" d="M293.886 481.278v-1.7l-12.534 8.016v2.08z" class="prefix__cls-33" data-name="패스 1034" transform="translate(272.675 -140.152)"/>
            <path id="prefix__패스_1035-2" d="M273.236 481.155v1.787l12.741 5.829v-1.787z" class="prefix__cls-34" data-name="패스 1035" transform="translate(268.051 -139.252)"/>
            <path id="prefix__패스_1036-2" d="M285.769 475.861l-12.533 8.339 12.741 5.829 12.534-8.337z" class="prefix__cls-35" data-name="패스 1036" transform="translate(268.051 -142.268)"/>
            <path id="prefix__패스_1037-2" d="M273.815 467.179v15.677l2.117.952v-15.677z" class="prefix__cls-36" data-name="패스 1037" transform="translate(267.92 -147.215)"/>
            <path id="prefix__패스_1038-2" d="M271.209 473.241v1.936l17.6 7.854v-1.936z" class="prefix__cls-37" data-name="패스 1038" transform="translate(266.451 -143.761)"/>
            <path id="prefix__패스_1039-2" d="M290.862 474.517v1.936l-8.443 5.85v-1.936z" class="prefix__cls-38" data-name="패스 1039" transform="translate(273.114 -143.034)"/>
            <path id="prefix__패스_1040-2" d="M265.831 493.633l2.117.954v-11.172l-2.117-.952z" class="prefix__cls-36" data-name="패스 1040" transform="translate(263.17 -138.507)"/>
            <path id="prefix__패스_1041-2" d="M267.948 464.535l-2.117-.954v13.961l2.117.952z" class="prefix__cls-36" data-name="패스 1041" transform="translate(263.17 -149.264)"/>
            <path id="prefix__패스_1042-2" d="M278.364 477.166l2.117.952-12.534 8.315-2.117-.952z" class="prefix__cls-39" data-name="패스 1042" transform="translate(263.17 -141.525)"/>
            <path id="prefix__패스_1043-2" d="M290.5 479.878l-17.6-7.854-1.69 1.909 17.6 7.854z" class="prefix__cls-40" data-name="패스 1043" transform="translate(266.466 -144.454)"/>
            <path id="prefix__패스_1044-2" d="M279.713 472.742l-12.533 8.488v-13.961l12.534-8.488z" class="prefix__cls-29" data-name="패스 1044" transform="translate(263.938 -151.999)"/>
            <path id="prefix__패스_1045-2" d="M272.286 465.291v10.569l17.6 7.854v-10.569z" class="prefix__cls-41" data-name="패스 1045" transform="translate(267.108 -148.29)"/>
            <path id="prefix__패스_1046-2" d="M269.062 491.4l15.816 7.113v-6.8l-15.816-7.113z" class="prefix__cls-42" data-name="패스 1046" transform="translate(265.011 -137.286)"/>
            <path id="prefix__패스_1047-2" d="M282.491 473.755l6.621-4.411-17.712-7.965v10.569l11.091 4.988v-3.179" class="prefix__cls-36" data-name="패스 1047" transform="translate(266.568 -150.519)"/>
            <path id="prefix__패스_1048-2" d="M287.547 454.461l-21.717 14.317 2.151.953 6.722-4.411 17.984 7.966-6.722 4.411 2.148.951 21.717-14.317z" class="prefix__cls-39" data-name="패스 1048" transform="translate(263.17 -154.46)"/>
            <path id="prefix__패스_1049-2" d="M280.581 470.218l-2.117-.954v13.961l2.117.952z" class="prefix__cls-36" data-name="패스 1049" transform="translate(270.686 -146.027)"/>
            <path id="prefix__패스_1050-2" d="M286.448 472.861v15.677l2.117.952v-15.677z" class="prefix__cls-36" data-name="패스 1050" transform="translate(275.436 -143.977)"/>
            <path id="prefix__패스_1051-2" d="M278.464 499.316l2.117.954V489.1l-2.117-.952z" class="prefix__cls-36" data-name="패스 1051" transform="translate(270.686 -135.27)"/>
            <path id="prefix__패스_1052-2" d="M291 482.848l2.117.952-12.534 8.315-2.117-.952z" class="prefix__cls-39" data-name="패스 1052" transform="translate(270.825 -138.287)"/>
            <path id="prefix__패스_1053-2" d="M282.419 481.026l6.325-4.383v-3.283l-4.635 3.833v1.923z" class="prefix__cls-43" data-name="패스 1053" transform="translate(273.086 -143.693)"/>
            <path id="prefix__패스_1054-2" d="M279.813 475.066v13.958l12.533-8.393v15.683l-12.533 8.393v11.169l21.39-14.317v-40.81z" class="prefix__cls-29" data-name="패스 1054" transform="translate(271.798 -150.878)"/>
            <path id="prefix__패스_1055-2" d="M269.549 486.4a.233.233 0 0 1-.093-.108.1.1 0 0 1 0-.108l.562-.65c.019-.024.055-.024.094 0a.237.237 0 0 1 .094.108l.562 1.3a.109.109 0 0 1 0 .108c-.02.022-.055.022-.094 0z" class="prefix__cls-43" data-name="패스 1055" transform="translate(265.227 -136.766)"/>
            <path id="prefix__패스_1056-2" d="M269.484 486.224l.562-.648c.013-.014.042 0 .053.03l.564 1.3c.011.027 0 .044-.027.031l-1.125-.65c-.024-.014-.04-.049-.027-.063z" class="prefix__cls-38" data-name="패스 1056" transform="translate(265.249 -136.737)"/>
            <path id="prefix__패스_1057-2" d="M269.847 486.2a.06.06 0 0 1-.025-.038l-.031-.4c-.011-.14.19-.009.179.1l-.031.359c0 .014-.013.017-.025.009zm.033.1c-.041-.025-.075-.011-.075.031a.157.157 0 0 0 .075.118c.041.024.075.009.075-.031a.157.157 0 0 0-.075-.112z" class="prefix__cls-43" data-name="패스 1057" transform="translate(265.426 -136.658)"/>
            <path id="prefix__사각형_3216-3" d="M0 0h100v44a6 6 0 0 1-6 6H6a6 6 0 0 1-6-6V0z" class="prefix__cls-9" data-name="사각형 3216" transform="translate(501 373)"/>
            <text id="prefix__사용률-2" class="prefix__cls-44" data-name="사용률" transform="translate(511 391)">
                <tspan x="0" y="0">사용률</tspan>
            </text>
            <text id="prefix__전류량-2" class="prefix__cls-44" data-name="전류량" transform="translate(511 411)">
                <tspan x="0" y="0">전류량</tspan>
            </text>
            <rect id="prefix__사각형_3203" width="100" height="80" class="prefix__cls-45" data-name="사각형 3203" rx="8" transform="translate(501 463)"/>
            <text id="prefix__할당률" class="prefix__cls-46" transform="translate(511 510)">
                <tspan x="0" y="0">할당률</tspan>
            </text>
            <text id="prefix__전류량-3" class="prefix__cls-46" data-name="전류량" transform="translate(511 530)">
                <tspan x="0" y="0">전류량</tspan>
            </text>
            <path id="prefix__사각형_3288" d="M6 0h88a6 6 0 0 1 6 6v22H0V6a6 6 0 0 1 6-6z" class="prefix__cls-8" data-name="사각형 3288" transform="translate(501 463)"/>
            <path id="prefix__선_117-3" d="M0 0L40 0" class="prefix__cls-26" data-name="선 117" transform="rotate(-90 581.101 -118.101)"/>
            <path id="prefix__선_119-3" d="M0 0L40 0" class="prefix__cls-27" data-name="선 119" transform="rotate(-90 581.101 -118.101)"/>
            <rect id="prefix__사각형_1459-4" width="100" height="170" class="prefix__cls-7" data-name="사각형 1459" rx="6" transform="translate(649 253)"/>
            <path id="prefix__사각형_1471-4" d="M6 0h88a6 6 0 0 1 6 6v34H0V6a6 6 0 0 1 6-6z" class="prefix__cls-28" data-name="사각형 1471" transform="translate(649 253)"/>
            <path id="prefix__패스_1013-3" d="M292.218 468.927l-12.534 8.32v5.583l-12.505 8.3v11.17l12.534-8.315V488.4l12.505-8.3z" class="prefix__cls-29" data-name="패스 1013" transform="translate(411.938 -146.219)"/>
            <path id="prefix__패스_1014-3" d="M269.062 488.888l22.469-14.845 16.034 6.909L285.155 496z" class="prefix__cls-30" data-name="패스 1014" transform="translate(413.011 -143.304)"/>
            <path id="prefix__패스_1015-3" d="M269.062 483.5v1.737l15.816 7.113v-1.737z" class="prefix__cls-31" data-name="패스 1015" transform="translate(413.011 -137.916)"/>
            <path id="prefix__패스_1016-3" d="M292.571 474.692l-22.083 14.845v.253l.45.2v-.253l22.083-14.845z" class="prefix__cls-32" data-name="패스 1016" transform="translate(413.823 -142.934)"/>
            <path id="prefix__패스_1017-3" d="M270.486 489.788v-.25l22.083-14.845v.25z" class="prefix__cls-33" data-name="패스 1017" transform="translate(413.823 -142.934)"/>
            <path id="prefix__패스_1018-3" d="M293.695 475.2l-22.083 14.845v.253l.45.2v-.253l22.083-14.845z" class="prefix__cls-32" data-name="패스 1018" transform="translate(414.463 -142.646)"/>
            <path id="prefix__패스_1019-3" d="M271.61 490.293v-.25L293.7 475.2v.25z" class="prefix__cls-33" data-name="패스 1019" transform="translate(414.463 -142.646)"/>
            <path id="prefix__패스_1020-3" d="M294.818 475.692l-22.083 14.845v.253l.45.2v-.253l22.083-14.845z" class="prefix__cls-32" data-name="패스 1020" transform="translate(415.353 -142.365)"/>
            <path id="prefix__패스_1021-3" d="M272.734 490.787v-.25l22.083-14.845v.25z" class="prefix__cls-33" data-name="패스 1021" transform="translate(415.352 -142.365)"/>
            <path id="prefix__패스_1022-3" d="M295.942 476.2l-22.083 14.85v.253l.45.2v-.253l22.083-14.845z" class="prefix__cls-32" data-name="패스 1022" transform="translate(416.069 -142.073)"/>
            <path id="prefix__패스_1023-3" d="M273.857 491.3v-.25l22.086-14.85v.25z" class="prefix__cls-33" data-name="패스 1023" transform="translate(416.068 -142.073)"/>
            <path id="prefix__패스_1024-3" d="M297.066 476.708l-22.083 14.845v.253l.45.2v-.253l22.083-14.845z" class="prefix__cls-32" data-name="패스 1024" transform="translate(416.786 -141.785)"/>
            <path id="prefix__패스_1025-3" d="M274.981 491.8v-.25l22.083-14.845v.25z" class="prefix__cls-33" data-name="패스 1025" transform="translate(416.785 -141.785)"/>
            <path id="prefix__패스_1026-3" d="M298.189 477.217l-22.083 14.845v.253l.45.2v-.253l22.083-14.845z" class="prefix__cls-32" data-name="패스 1026" transform="translate(417.686 -141.496)"/>
            <path id="prefix__패스_1027-3" d="M276.1 492.313v-.25l22.083-14.845v.25z" class="prefix__cls-33" data-name="패스 1027" transform="translate(417.685 -141.496)"/>
            <path id="prefix__패스_1028-3" d="M300.437 478.223l-22.083 14.845v.253l.45.2v-.253l22.083-14.845z" class="prefix__cls-32" data-name="패스 1028" transform="translate(418.966 -140.922)"/>
            <path id="prefix__패스_1029-3" d="M278.352 493.319v-.25l22.083-14.845v.25z" class="prefix__cls-33" data-name="패스 1029" transform="translate(418.965 -140.922)"/>
            <path id="prefix__패스_1030-3" d="M299.313 477.72l-22.083 14.846v.253l.45.2v-.253l22.083-14.845z" class="prefix__cls-32" data-name="패스 1030" transform="translate(418.326 -141.209)"/>
            <path id="prefix__패스_1031-3" d="M277.228 492.816v-.25l22.083-14.845v.25z" class="prefix__cls-33" data-name="패스 1031" transform="translate(418.325 -141.209)"/>
            <path id="prefix__패스_1032-3" d="M291.448 474.179l-22.083 14.845v.253l.45.2v-.253l22.085-14.842z" class="prefix__cls-32" data-name="패스 1032" transform="translate(413.183 -143.226)"/>
            <path id="prefix__패스_1033-3" d="M269.363 489.275v-.25l22.083-14.845v.25z" class="prefix__cls-33" data-name="패스 1033" transform="translate(413.182 -143.226)"/>
            <path id="prefix__패스_1034-3" d="M293.886 481.278v-1.7l-12.534 8.016v2.08z" class="prefix__cls-33" data-name="패스 1034" transform="translate(420.675 -140.152)"/>
            <path id="prefix__패스_1035-3" d="M273.236 481.155v1.787l12.741 5.829v-1.787z" class="prefix__cls-34" data-name="패스 1035" transform="translate(416.051 -139.252)"/>
            <path id="prefix__패스_1036-3" d="M285.769 475.861l-12.533 8.339 12.741 5.829 12.534-8.337z" class="prefix__cls-35" data-name="패스 1036" transform="translate(416.051 -142.268)"/>
            <path id="prefix__패스_1037-3" d="M273.815 467.179v15.677l2.117.952v-15.677z" class="prefix__cls-36" data-name="패스 1037" transform="translate(415.92 -147.215)"/>
            <path id="prefix__패스_1038-3" d="M271.209 473.241v1.936l17.6 7.854v-1.936z" class="prefix__cls-37" data-name="패스 1038" transform="translate(414.451 -143.761)"/>
            <path id="prefix__패스_1039-3" d="M290.862 474.517v1.936l-8.443 5.85v-1.936z" class="prefix__cls-38" data-name="패스 1039" transform="translate(421.114 -143.034)"/>
            <path id="prefix__패스_1040-3" d="M265.831 493.633l2.117.954v-11.172l-2.117-.952z" class="prefix__cls-36" data-name="패스 1040" transform="translate(411.17 -138.507)"/>
            <path id="prefix__패스_1041-3" d="M267.948 464.535l-2.117-.954v13.961l2.117.952z" class="prefix__cls-36" data-name="패스 1041" transform="translate(411.17 -149.264)"/>
            <path id="prefix__패스_1042-3" d="M278.364 477.166l2.117.952-12.534 8.315-2.117-.952z" class="prefix__cls-39" data-name="패스 1042" transform="translate(411.17 -141.525)"/>
            <path id="prefix__패스_1043-3" d="M290.5 479.878l-17.6-7.854-1.69 1.909 17.6 7.854z" class="prefix__cls-40" data-name="패스 1043" transform="translate(414.466 -144.454)"/>
            <path id="prefix__패스_1044-3" d="M279.713 472.742l-12.533 8.488v-13.961l12.534-8.488z" class="prefix__cls-29" data-name="패스 1044" transform="translate(411.938 -151.999)"/>
            <path id="prefix__패스_1045-3" d="M272.286 465.291v10.569l17.6 7.854v-10.569z" class="prefix__cls-41" data-name="패스 1045" transform="translate(415.108 -148.29)"/>
            <path id="prefix__패스_1046-3" d="M269.062 491.4l15.816 7.113v-6.8l-15.816-7.113z" class="prefix__cls-42" data-name="패스 1046" transform="translate(413.011 -137.286)"/>
            <path id="prefix__패스_1047-3" d="M282.491 473.755l6.621-4.411-17.712-7.965v10.569l11.091 4.988v-3.179" class="prefix__cls-36" data-name="패스 1047" transform="translate(414.568 -150.519)"/>
            <path id="prefix__패스_1048-3" d="M287.547 454.461l-21.717 14.317 2.151.953 6.722-4.411 17.984 7.966-6.722 4.411 2.148.951 21.717-14.317z" class="prefix__cls-39" data-name="패스 1048" transform="translate(411.17 -154.46)"/>
            <path id="prefix__패스_1049-3" d="M280.581 470.218l-2.117-.954v13.961l2.117.952z" class="prefix__cls-36" data-name="패스 1049" transform="translate(418.686 -146.027)"/>
            <path id="prefix__패스_1050-3" d="M286.448 472.861v15.677l2.117.952v-15.677z" class="prefix__cls-36" data-name="패스 1050" transform="translate(423.436 -143.977)"/>
            <path id="prefix__패스_1051-3" d="M278.464 499.316l2.117.954V489.1l-2.117-.952z" class="prefix__cls-36" data-name="패스 1051" transform="translate(418.686 -135.27)"/>
            <path id="prefix__패스_1052-3" d="M291 482.848l2.117.952-12.534 8.315-2.117-.952z" class="prefix__cls-39" data-name="패스 1052" transform="translate(418.825 -138.287)"/>
            <path id="prefix__패스_1053-3" d="M282.419 481.026l6.325-4.383v-3.283l-4.635 3.833v1.923z" class="prefix__cls-43" data-name="패스 1053" transform="translate(421.086 -143.693)"/>
            <path id="prefix__패스_1054-3" d="M279.813 475.066v13.958l12.533-8.393v15.683l-12.533 8.393v11.169l21.39-14.317v-40.81z" class="prefix__cls-29" data-name="패스 1054" transform="translate(419.798 -150.878)"/>
            <path id="prefix__패스_1055-3" d="M269.549 486.4a.233.233 0 0 1-.093-.108.1.1 0 0 1 0-.108l.562-.65c.019-.024.055-.024.094 0a.237.237 0 0 1 .094.108l.562 1.3a.109.109 0 0 1 0 .108c-.02.022-.055.022-.094 0z" class="prefix__cls-43" data-name="패스 1055" transform="translate(413.227 -136.766)"/>
            <path id="prefix__패스_1056-3" d="M269.484 486.224l.562-.648c.013-.014.042 0 .053.03l.564 1.3c.011.027 0 .044-.027.031l-1.125-.65c-.024-.014-.04-.049-.027-.063z" class="prefix__cls-38" data-name="패스 1056" transform="translate(413.249 -136.737)"/>
            <path id="prefix__패스_1057-3" d="M269.847 486.2a.06.06 0 0 1-.025-.038l-.031-.4c-.011-.14.19-.009.179.1l-.031.359c0 .014-.013.017-.025.009zm.033.1c-.041-.025-.075-.011-.075.031a.157.157 0 0 0 .075.118c.041.024.075.009.075-.031a.157.157 0 0 0-.075-.112z" class="prefix__cls-43" data-name="패스 1057" transform="translate(413.426 -136.658)"/>
            <path id="prefix__사각형_3216-4" d="M0 0h100v44a6 6 0 0 1-6 6H6a6 6 0 0 1-6-6V0z" class="prefix__cls-9" data-name="사각형 3216" transform="translate(649 373)"/>
            <text id="prefix__사용률-3" class="prefix__cls-44" data-name="사용률" transform="translate(659 391)">
                <tspan x="0" y="0">사용률</tspan>
            </text>
            <text id="prefix__전류량-4" class="prefix__cls-44" data-name="전류량" transform="translate(659 411)">
                <tspan x="0" y="0">전류량</tspan>
            </text>
            <rect id="prefix__사각형_3203-2" width="100" height="80" class="prefix__cls-45" data-name="사각형 3203" rx="8" transform="translate(649 463)"/>
            <text id="prefix__할당률-2" class="prefix__cls-46" data-name="할당률" transform="translate(659 510)">
                <tspan x="0" y="0">할당률</tspan>
            </text>
            <text id="prefix__전류량-5" class="prefix__cls-46" data-name="전류량" transform="translate(659 530)">
                <tspan x="0" y="0">전류량</tspan>
            </text>
            <path id="prefix__사각형_3288-2" d="M6 0h88a6 6 0 0 1 6 6v22H0V6a6 6 0 0 1 6-6z" class="prefix__cls-8" data-name="사각형 3288" transform="translate(649 463)"/>
            <path id="prefix__선_117-4" d="M0 0L40 0" class="prefix__cls-26" data-name="선 117" transform="rotate(-90 655.101 -192.101)"/>
            <path id="prefix__선_119-4" d="M0 0L40 0" class="prefix__cls-27" data-name="선 119" transform="rotate(-90 655.101 -192.101)"/>
            <rect id="prefix__사각형_1459-5" width="100" height="170" class="prefix__cls-7" data-name="사각형 1459" rx="6" transform="translate(797 253)"/>
            <path id="prefix__사각형_1471-5" d="M6 0h88a6 6 0 0 1 6 6v34H0V6a6 6 0 0 1 6-6z" class="prefix__cls-28" data-name="사각형 1471" transform="translate(797 253)"/>
            <path id="prefix__패스_1013-4" d="M292.218 468.927l-12.534 8.32v5.583l-12.505 8.3v11.17l12.534-8.315V488.4l12.505-8.3z" class="prefix__cls-29" data-name="패스 1013" transform="translate(559.938 -146.219)"/>
            <path id="prefix__패스_1014-4" d="M269.062 488.888l22.469-14.845 16.034 6.909L285.155 496z" class="prefix__cls-30" data-name="패스 1014" transform="translate(561.011 -143.304)"/>
            <path id="prefix__패스_1015-4" d="M269.062 483.5v1.737l15.816 7.113v-1.737z" class="prefix__cls-31" data-name="패스 1015" transform="translate(561.011 -137.916)"/>
            <path id="prefix__패스_1016-4" d="M292.571 474.692l-22.083 14.845v.253l.45.2v-.253l22.083-14.845z" class="prefix__cls-32" data-name="패스 1016" transform="translate(561.823 -142.934)"/>
            <path id="prefix__패스_1017-4" d="M270.486 489.788v-.25l22.083-14.845v.25z" class="prefix__cls-33" data-name="패스 1017" transform="translate(561.823 -142.934)"/>
            <path id="prefix__패스_1018-4" d="M293.695 475.2l-22.083 14.845v.253l.45.2v-.253l22.083-14.845z" class="prefix__cls-32" data-name="패스 1018" transform="translate(562.463 -142.646)"/>
            <path id="prefix__패스_1019-4" d="M271.61 490.293v-.25L293.7 475.2v.25z" class="prefix__cls-33" data-name="패스 1019" transform="translate(562.463 -142.646)"/>
            <path id="prefix__패스_1020-4" d="M294.818 475.692l-22.083 14.845v.253l.45.2v-.253l22.083-14.845z" class="prefix__cls-32" data-name="패스 1020" transform="translate(563.353 -142.365)"/>
            <path id="prefix__패스_1021-4" d="M272.734 490.787v-.25l22.083-14.845v.25z" class="prefix__cls-33" data-name="패스 1021" transform="translate(563.352 -142.365)"/>
            <path id="prefix__패스_1022-4" d="M295.942 476.2l-22.083 14.85v.253l.45.2v-.253l22.083-14.845z" class="prefix__cls-32" data-name="패스 1022" transform="translate(564.069 -142.073)"/>
            <path id="prefix__패스_1023-4" d="M273.857 491.3v-.25l22.086-14.85v.25z" class="prefix__cls-33" data-name="패스 1023" transform="translate(564.068 -142.073)"/>
            <path id="prefix__패스_1024-4" d="M297.066 476.708l-22.083 14.845v.253l.45.2v-.253l22.083-14.845z" class="prefix__cls-32" data-name="패스 1024" transform="translate(564.786 -141.785)"/>
            <path id="prefix__패스_1025-4" d="M274.981 491.8v-.25l22.083-14.845v.25z" class="prefix__cls-33" data-name="패스 1025" transform="translate(564.785 -141.785)"/>
            <path id="prefix__패스_1026-4" d="M298.189 477.217l-22.083 14.845v.253l.45.2v-.253l22.083-14.845z" class="prefix__cls-32" data-name="패스 1026" transform="translate(565.686 -141.496)"/>
            <path id="prefix__패스_1027-4" d="M276.1 492.313v-.25l22.083-14.845v.25z" class="prefix__cls-33" data-name="패스 1027" transform="translate(565.685 -141.496)"/>
            <path id="prefix__패스_1028-4" d="M300.437 478.223l-22.083 14.845v.253l.45.2v-.253l22.083-14.845z" class="prefix__cls-32" data-name="패스 1028" transform="translate(566.966 -140.922)"/>
            <path id="prefix__패스_1029-4" d="M278.352 493.319v-.25l22.083-14.845v.25z" class="prefix__cls-33" data-name="패스 1029" transform="translate(566.965 -140.922)"/>
            <path id="prefix__패스_1030-4" d="M299.313 477.72l-22.083 14.846v.253l.45.2v-.253l22.083-14.845z" class="prefix__cls-32" data-name="패스 1030" transform="translate(566.326 -141.209)"/>
            <path id="prefix__패스_1031-4" d="M277.228 492.816v-.25l22.083-14.845v.25z" class="prefix__cls-33" data-name="패스 1031" transform="translate(566.325 -141.209)"/>
            <path id="prefix__패스_1032-4" d="M291.448 474.179l-22.083 14.845v.253l.45.2v-.253l22.085-14.842z" class="prefix__cls-32" data-name="패스 1032" transform="translate(561.183 -143.226)"/>
            <path id="prefix__패스_1033-4" d="M269.363 489.275v-.25l22.083-14.845v.25z" class="prefix__cls-33" data-name="패스 1033" transform="translate(561.182 -143.226)"/>
            <path id="prefix__패스_1034-4" d="M293.886 481.278v-1.7l-12.534 8.016v2.08z" class="prefix__cls-33" data-name="패스 1034" transform="translate(568.675 -140.152)"/>
            <path id="prefix__패스_1035-4" d="M273.236 481.155v1.787l12.741 5.829v-1.787z" class="prefix__cls-34" data-name="패스 1035" transform="translate(564.051 -139.252)"/>
            <path id="prefix__패스_1036-4" d="M285.769 475.861l-12.533 8.339 12.741 5.829 12.534-8.337z" class="prefix__cls-35" data-name="패스 1036" transform="translate(564.051 -142.268)"/>
            <path id="prefix__패스_1037-4" d="M273.815 467.179v15.677l2.117.952v-15.677z" class="prefix__cls-36" data-name="패스 1037" transform="translate(563.92 -147.215)"/>
            <path id="prefix__패스_1038-4" d="M271.209 473.241v1.936l17.6 7.854v-1.936z" class="prefix__cls-37" data-name="패스 1038" transform="translate(562.451 -143.761)"/>
            <path id="prefix__패스_1039-4" d="M290.862 474.517v1.936l-8.443 5.85v-1.936z" class="prefix__cls-38" data-name="패스 1039" transform="translate(569.114 -143.034)"/>
            <path id="prefix__패스_1040-4" d="M265.831 493.633l2.117.954v-11.172l-2.117-.952z" class="prefix__cls-36" data-name="패스 1040" transform="translate(559.17 -138.507)"/>
            <path id="prefix__패스_1041-4" d="M267.948 464.535l-2.117-.954v13.961l2.117.952z" class="prefix__cls-36" data-name="패스 1041" transform="translate(559.17 -149.264)"/>
            <path id="prefix__패스_1042-4" d="M278.364 477.166l2.117.952-12.534 8.315-2.117-.952z" class="prefix__cls-39" data-name="패스 1042" transform="translate(559.17 -141.525)"/>
            <path id="prefix__패스_1043-4" d="M290.5 479.878l-17.6-7.854-1.69 1.909 17.6 7.854z" class="prefix__cls-40" data-name="패스 1043" transform="translate(562.466 -144.454)"/>
            <path id="prefix__패스_1044-4" d="M279.713 472.742l-12.533 8.488v-13.961l12.534-8.488z" class="prefix__cls-29" data-name="패스 1044" transform="translate(559.938 -151.999)"/>
            <path id="prefix__패스_1045-4" d="M272.286 465.291v10.569l17.6 7.854v-10.569z" class="prefix__cls-41" data-name="패스 1045" transform="translate(563.108 -148.29)"/>
            <path id="prefix__패스_1046-4" d="M269.062 491.4l15.816 7.113v-6.8l-15.816-7.113z" class="prefix__cls-42" data-name="패스 1046" transform="translate(561.011 -137.286)"/>
            <path id="prefix__패스_1047-4" d="M282.491 473.755l6.621-4.411-17.712-7.965v10.569l11.091 4.988v-3.179" class="prefix__cls-36" data-name="패스 1047" transform="translate(562.568 -150.519)"/>
            <path id="prefix__패스_1048-4" d="M287.547 454.461l-21.717 14.317 2.151.953 6.722-4.411 17.984 7.966-6.722 4.411 2.148.951 21.717-14.317z" class="prefix__cls-39" data-name="패스 1048" transform="translate(559.17 -154.46)"/>
            <path id="prefix__패스_1049-4" d="M280.581 470.218l-2.117-.954v13.961l2.117.952z" class="prefix__cls-36" data-name="패스 1049" transform="translate(566.686 -146.027)"/>
            <path id="prefix__패스_1050-4" d="M286.448 472.861v15.677l2.117.952v-15.677z" class="prefix__cls-36" data-name="패스 1050" transform="translate(571.436 -143.977)"/>
            <path id="prefix__패스_1051-4" d="M278.464 499.316l2.117.954V489.1l-2.117-.952z" class="prefix__cls-36" data-name="패스 1051" transform="translate(566.686 -135.27)"/>
            <path id="prefix__패스_1052-4" d="M291 482.848l2.117.952-12.534 8.315-2.117-.952z" class="prefix__cls-39" data-name="패스 1052" transform="translate(566.825 -138.287)"/>
            <path id="prefix__패스_1053-4" d="M282.419 481.026l6.325-4.383v-3.283l-4.635 3.833v1.923z" class="prefix__cls-43" data-name="패스 1053" transform="translate(569.086 -143.693)"/>
            <path id="prefix__패스_1054-4" d="M279.813 475.066v13.958l12.533-8.393v15.683l-12.533 8.393v11.169l21.39-14.317v-40.81z" class="prefix__cls-29" data-name="패스 1054" transform="translate(567.798 -150.878)"/>
            <path id="prefix__패스_1055-4" d="M269.549 486.4a.233.233 0 0 1-.093-.108.1.1 0 0 1 0-.108l.562-.65c.019-.024.055-.024.094 0a.237.237 0 0 1 .094.108l.562 1.3a.109.109 0 0 1 0 .108c-.02.022-.055.022-.094 0z" class="prefix__cls-43" data-name="패스 1055" transform="translate(561.227 -136.766)"/>
            <path id="prefix__패스_1056-4" d="M269.484 486.224l.562-.648c.013-.014.042 0 .053.03l.564 1.3c.011.027 0 .044-.027.031l-1.125-.65c-.024-.014-.04-.049-.027-.063z" class="prefix__cls-38" data-name="패스 1056" transform="translate(561.249 -136.737)"/>
            <path id="prefix__패스_1057-4" d="M269.847 486.2a.06.06 0 0 1-.025-.038l-.031-.4c-.011-.14.19-.009.179.1l-.031.359c0 .014-.013.017-.025.009zm.033.1c-.041-.025-.075-.011-.075.031a.157.157 0 0 0 .075.118c.041.024.075.009.075-.031a.157.157 0 0 0-.075-.112z" class="prefix__cls-43" data-name="패스 1057" transform="translate(561.426 -136.658)"/>
            <path id="prefix__사각형_3216-5" d="M0 0h100v44a6 6 0 0 1-6 6H6a6 6 0 0 1-6-6V0z" class="prefix__cls-9" data-name="사각형 3216" transform="translate(797 373)"/>
            <text id="prefix__사용률-4" class="prefix__cls-44" data-name="사용률" transform="translate(807 391)">
                <tspan x="0" y="0">사용률</tspan>
            </text>
            <text id="prefix__전류량-6" class="prefix__cls-44" data-name="전류량" transform="translate(807 411)">
                <tspan x="0" y="0">전류량</tspan>
            </text>
            <rect id="prefix__사각형_3203-3" width="100" height="80" class="prefix__cls-45" data-name="사각형 3203" rx="8" transform="translate(797 463)"/>
            <text id="prefix__할당률-3" class="prefix__cls-46" data-name="할당률" transform="translate(807 510)">
                <tspan x="0" y="0">할당률</tspan>
            </text>
            <text id="prefix__전류량-7" class="prefix__cls-46" data-name="전류량" transform="translate(807 530)">
                <tspan x="0" y="0">전류량</tspan>
            </text>
            <path id="prefix__사각형_3288-3" d="M6 0h88a6 6 0 0 1 6 6v22H0V6a6 6 0 0 1 6-6z" class="prefix__cls-8" data-name="사각형 3288" transform="translate(797 463)"/>
            <path id="prefix__선_117-5" d="M0 0L40 0" class="prefix__cls-26" data-name="선 117" transform="rotate(-90 729.101 -266.101)"/>
            <path id="prefix__선_119-5" d="M0 0L40 0" class="prefix__cls-27" data-name="선 119" transform="rotate(-90 729.101 -266.101)"/>
            <rect id="prefix__사각형_1459-6" width="100" height="170" class="prefix__cls-7" data-name="사각형 1459" rx="6" transform="translate(945 253)"/>
            <path id="prefix__사각형_1471-6" d="M6 0h88a6 6 0 0 1 6 6v34H0V6a6 6 0 0 1 6-6z" class="prefix__cls-28" data-name="사각형 1471" transform="translate(945 253)"/>
            <path id="prefix__패스_1013-5" d="M292.218 468.927l-12.534 8.32v5.583l-12.505 8.3v11.17l12.534-8.315V488.4l12.505-8.3z" class="prefix__cls-29" data-name="패스 1013" transform="translate(707.938 -146.219)"/>
            <path id="prefix__패스_1014-5" d="M269.062 488.888l22.469-14.845 16.034 6.909L285.155 496z" class="prefix__cls-30" data-name="패스 1014" transform="translate(709.011 -143.304)"/>
            <path id="prefix__패스_1015-5" d="M269.062 483.5v1.737l15.816 7.113v-1.737z" class="prefix__cls-31" data-name="패스 1015" transform="translate(709.011 -137.916)"/>
            <path id="prefix__패스_1016-5" d="M292.571 474.692l-22.083 14.845v.253l.45.2v-.253l22.083-14.845z" class="prefix__cls-32" data-name="패스 1016" transform="translate(709.823 -142.934)"/>
            <path id="prefix__패스_1017-5" d="M270.486 489.788v-.25l22.083-14.845v.25z" class="prefix__cls-33" data-name="패스 1017" transform="translate(709.823 -142.934)"/>
            <path id="prefix__패스_1018-5" d="M293.695 475.2l-22.083 14.845v.253l.45.2v-.253l22.083-14.845z" class="prefix__cls-32" data-name="패스 1018" transform="translate(710.464 -142.646)"/>
            <path id="prefix__패스_1019-5" d="M271.61 490.293v-.25L293.7 475.2v.25z" class="prefix__cls-33" data-name="패스 1019" transform="translate(710.463 -142.646)"/>
            <path id="prefix__패스_1020-5" d="M294.818 475.692l-22.083 14.845v.253l.45.2v-.253l22.083-14.845z" class="prefix__cls-32" data-name="패스 1020" transform="translate(711.353 -142.365)"/>
            <path id="prefix__패스_1021-5" d="M272.734 490.787v-.25l22.083-14.845v.25z" class="prefix__cls-33" data-name="패스 1021" transform="translate(711.352 -142.365)"/>
            <path id="prefix__패스_1022-5" d="M295.942 476.2l-22.083 14.85v.253l.45.2v-.253l22.083-14.845z" class="prefix__cls-32" data-name="패스 1022" transform="translate(712.069 -142.073)"/>
            <path id="prefix__패스_1023-5" d="M273.857 491.3v-.25l22.086-14.85v.25z" class="prefix__cls-33" data-name="패스 1023" transform="translate(712.068 -142.073)"/>
            <path id="prefix__패스_1024-5" d="M297.066 476.708l-22.083 14.845v.253l.45.2v-.253l22.083-14.845z" class="prefix__cls-32" data-name="패스 1024" transform="translate(712.786 -141.785)"/>
            <path id="prefix__패스_1025-5" d="M274.981 491.8v-.25l22.083-14.845v.25z" class="prefix__cls-33" data-name="패스 1025" transform="translate(712.785 -141.785)"/>
            <path id="prefix__패스_1026-5" d="M298.189 477.217l-22.083 14.845v.253l.45.2v-.253l22.083-14.845z" class="prefix__cls-32" data-name="패스 1026" transform="translate(713.686 -141.496)"/>
            <path id="prefix__패스_1027-5" d="M276.1 492.313v-.25l22.083-14.845v.25z" class="prefix__cls-33" data-name="패스 1027" transform="translate(713.685 -141.496)"/>
            <path id="prefix__패스_1028-5" d="M300.437 478.223l-22.083 14.845v.253l.45.2v-.253l22.083-14.845z" class="prefix__cls-32" data-name="패스 1028" transform="translate(714.966 -140.922)"/>
            <path id="prefix__패스_1029-5" d="M278.352 493.319v-.25l22.083-14.845v.25z" class="prefix__cls-33" data-name="패스 1029" transform="translate(714.965 -140.922)"/>
            <path id="prefix__패스_1030-5" d="M299.313 477.72l-22.083 14.846v.253l.45.2v-.253l22.083-14.845z" class="prefix__cls-32" data-name="패스 1030" transform="translate(714.326 -141.209)"/>
            <path id="prefix__패스_1031-5" d="M277.228 492.816v-.25l22.083-14.845v.25z" class="prefix__cls-33" data-name="패스 1031" transform="translate(714.325 -141.209)"/>
            <path id="prefix__패스_1032-5" d="M291.448 474.179l-22.083 14.845v.253l.45.2v-.253l22.085-14.842z" class="prefix__cls-32" data-name="패스 1032" transform="translate(709.183 -143.226)"/>
            <path id="prefix__패스_1033-5" d="M269.363 489.275v-.25l22.083-14.845v.25z" class="prefix__cls-33" data-name="패스 1033" transform="translate(709.182 -143.226)"/>
            <path id="prefix__패스_1034-5" d="M293.886 481.278v-1.7l-12.534 8.016v2.08z" class="prefix__cls-33" data-name="패스 1034" transform="translate(716.675 -140.152)"/>
            <path id="prefix__패스_1035-5" d="M273.236 481.155v1.787l12.741 5.829v-1.787z" class="prefix__cls-34" data-name="패스 1035" transform="translate(712.051 -139.252)"/>
            <path id="prefix__패스_1036-5" d="M285.769 475.861l-12.533 8.339 12.741 5.829 12.534-8.337z" class="prefix__cls-35" data-name="패스 1036" transform="translate(712.051 -142.268)"/>
            <path id="prefix__패스_1037-5" d="M273.815 467.179v15.677l2.117.952v-15.677z" class="prefix__cls-36" data-name="패스 1037" transform="translate(711.92 -147.215)"/>
            <path id="prefix__패스_1038-5" d="M271.209 473.241v1.936l17.6 7.854v-1.936z" class="prefix__cls-37" data-name="패스 1038" transform="translate(710.451 -143.761)"/>
            <path id="prefix__패스_1039-5" d="M290.862 474.517v1.936l-8.443 5.85v-1.936z" class="prefix__cls-38" data-name="패스 1039" transform="translate(717.114 -143.034)"/>
            <path id="prefix__패스_1040-5" d="M265.831 493.633l2.117.954v-11.172l-2.117-.952z" class="prefix__cls-36" data-name="패스 1040" transform="translate(707.17 -138.507)"/>
            <path id="prefix__패스_1041-5" d="M267.948 464.535l-2.117-.954v13.961l2.117.952z" class="prefix__cls-36" data-name="패스 1041" transform="translate(707.17 -149.264)"/>
            <path id="prefix__패스_1042-5" d="M278.364 477.166l2.117.952-12.534 8.315-2.117-.952z" class="prefix__cls-39" data-name="패스 1042" transform="translate(707.17 -141.525)"/>
            <path id="prefix__패스_1043-5" d="M290.5 479.878l-17.6-7.854-1.69 1.909 17.6 7.854z" class="prefix__cls-40" data-name="패스 1043" transform="translate(710.466 -144.454)"/>
            <path id="prefix__패스_1044-5" d="M279.713 472.742l-12.533 8.488v-13.961l12.534-8.488z" class="prefix__cls-29" data-name="패스 1044" transform="translate(707.938 -151.999)"/>
            <path id="prefix__패스_1045-5" d="M272.286 465.291v10.569l17.6 7.854v-10.569z" class="prefix__cls-41" data-name="패스 1045" transform="translate(711.108 -148.29)"/>
            <path id="prefix__패스_1046-5" d="M269.062 491.4l15.816 7.113v-6.8l-15.816-7.113z" class="prefix__cls-42" data-name="패스 1046" transform="translate(709.011 -137.286)"/>
            <path id="prefix__패스_1047-5" d="M282.491 473.755l6.621-4.411-17.712-7.965v10.569l11.091 4.988v-3.179" class="prefix__cls-36" data-name="패스 1047" transform="translate(710.568 -150.519)"/>
            <path id="prefix__패스_1048-5" d="M287.547 454.461l-21.717 14.317 2.151.953 6.722-4.411 17.984 7.966-6.722 4.411 2.148.951 21.717-14.317z" class="prefix__cls-39" data-name="패스 1048" transform="translate(707.17 -154.46)"/>
            <path id="prefix__패스_1049-5" d="M280.581 470.218l-2.117-.954v13.961l2.117.952z" class="prefix__cls-36" data-name="패스 1049" transform="translate(714.686 -146.027)"/>
            <path id="prefix__패스_1050-5" d="M286.448 472.861v15.677l2.117.952v-15.677z" class="prefix__cls-36" data-name="패스 1050" transform="translate(719.436 -143.977)"/>
            <path id="prefix__패스_1051-5" d="M278.464 499.316l2.117.954V489.1l-2.117-.952z" class="prefix__cls-36" data-name="패스 1051" transform="translate(714.686 -135.27)"/>
            <path id="prefix__패스_1052-5" d="M291 482.848l2.117.952-12.534 8.315-2.117-.952z" class="prefix__cls-39" data-name="패스 1052" transform="translate(714.825 -138.287)"/>
            <path id="prefix__패스_1053-5" d="M282.419 481.026l6.325-4.383v-3.283l-4.635 3.833v1.923z" class="prefix__cls-43" data-name="패스 1053" transform="translate(717.086 -143.693)"/>
            <path id="prefix__패스_1054-5" d="M279.813 475.066v13.958l12.533-8.393v15.683l-12.533 8.393v11.169l21.39-14.317v-40.81z" class="prefix__cls-29" data-name="패스 1054" transform="translate(715.798 -150.878)"/>
            <path id="prefix__패스_1055-5" d="M269.549 486.4a.233.233 0 0 1-.093-.108.1.1 0 0 1 0-.108l.562-.65c.019-.024.055-.024.094 0a.237.237 0 0 1 .094.108l.562 1.3a.109.109 0 0 1 0 .108c-.02.022-.055.022-.094 0z" class="prefix__cls-43" data-name="패스 1055" transform="translate(709.227 -136.766)"/>
            <path id="prefix__패스_1056-5" d="M269.484 486.224l.562-.648c.013-.014.042 0 .053.03l.564 1.3c.011.027 0 .044-.027.031l-1.125-.65c-.024-.014-.04-.049-.027-.063z" class="prefix__cls-38" data-name="패스 1056" transform="translate(709.249 -136.737)"/>
            <path id="prefix__패스_1057-5" d="M269.847 486.2a.06.06 0 0 1-.025-.038l-.031-.4c-.011-.14.19-.009.179.1l-.031.359c0 .014-.013.017-.025.009zm.033.1c-.041-.025-.075-.011-.075.031a.157.157 0 0 0 .075.118c.041.024.075.009.075-.031a.157.157 0 0 0-.075-.112z" class="prefix__cls-43" data-name="패스 1057" transform="translate(709.426 -136.658)"/>
            <path id="prefix__사각형_3216-6" d="M0 0h100v44a6 6 0 0 1-6 6H6a6 6 0 0 1-6-6V0z" class="prefix__cls-9" data-name="사각형 3216" transform="translate(945 373)"/>
            <text id="prefix__사용률-5" class="prefix__cls-44" data-name="사용률" transform="translate(955 391)">
                <tspan x="0" y="0">사용률</tspan>
            </text>
            <text id="prefix__전류량-8" class="prefix__cls-44" data-name="전류량" transform="translate(955 411)">
                <tspan x="0" y="0">전류량</tspan>
            </text>
            <rect id="prefix__사각형_3203-4" width="100" height="80" class="prefix__cls-45" data-name="사각형 3203" rx="8" transform="translate(945 463)"/>
            <text id="prefix__할당률-4" class="prefix__cls-46" data-name="할당률" transform="translate(955 510)">
                <tspan x="0" y="0">할당률</tspan>
            </text>
            <text id="prefix__전류량-9" class="prefix__cls-46" data-name="전류량" transform="translate(955 530)">
                <tspan x="0" y="0">전류량</tspan>
            </text>
            <path id="prefix__사각형_3288-4" d="M6 0h88a6 6 0 0 1 6 6v22H0V6a6 6 0 0 1 6-6z" class="prefix__cls-8" data-name="사각형 3288" transform="translate(945 463)"/>
            <rect id="prefix__사각형_3203-5" width="100" height="80" class="prefix__cls-45" data-name="사각형 3203" rx="8" transform="translate(1093 463)"/>
            <text id="prefix__할당률-5" class="prefix__cls-46" data-name="할당률" transform="translate(1103 510)">
                <tspan x="0" y="0">할당률</tspan>
            </text>
            <text id="prefix__전류량-10" class="prefix__cls-46" data-name="전류량" transform="translate(1103 530)">
                <tspan x="0" y="0">전류량</tspan>
            </text>
            <path id="prefix__사각형_3288-5" d="M6 0h88a6 6 0 0 1 6 6v22H0V6a6 6 0 0 1 6-6z" class="prefix__cls-8" data-name="사각형 3288" transform="translate(1093 463)"/>
        </g>
    </g>
</svg>
