<?xml version="1.0" encoding="UTF-8"?>
<svg width="264px" height="264px" viewBox="0 0 264 264" version="1.1" xmlns="http://www.w3.org/2000/svg" xmlns:xlink="http://www.w3.org/1999/xlink">
    <!-- Generator: Sketch 53.2 (72643) - https://sketchapp.com -->
    <title>press</title>
    <desc>Created with Sketch.</desc>
    <g id="Page-1" stroke="none" stroke-width="1" fill="none" fill-rule="evenodd" fill-opacity="0.9">
        <g id="Artboard" transform="translate(-456.000000, -760.000000)" fill="#FFFFFF" fill-rule="nonzero">
            <g id="hourglass" transform="translate(495.000000, 770.000000)">
                <path d="M131.466231,96.6483047 C147.655862,81.8991719 169.549492,61.9516953 171.544938,14.296875 L186,14.296875 L186,0 L0,0 L0,14.296875 L14.4550615,14.296875 C16.4505077,61.9516953 38.3441385,81.8991719 54.5337692,96.6483047 C65.3937846,106.542219 71.5384615,112.597898 71.5384615,122 C71.5384615,131.402102 65.3937846,137.457781 54.5337692,147.351695 C38.3441385,162.100828 16.4505077,182.048305 14.4550615,229.703125 L0,229.703125 L0,244 L186,244 L186,229.703125 L171.544938,229.703125 C169.549492,182.048305 147.655862,162.100828 131.466231,147.351695 C120.606215,137.457781 114.461538,131.402102 114.461538,122 C114.461538,112.597898 120.606215,106.542219 131.466231,96.6483047 Z M85.8461538,175.583734 C83.6365692,176.039328 81.4536923,176.702227 79.3232769,177.582914 L35.5050154,195.701344 C42.6607692,177.520484 54.1860923,167.015617 64.1733385,157.917086 C75.3190308,147.762969 85.8461538,138.172148 85.8461538,122 L85.8461538,175.583734 Z M121.826662,157.917086 C131.813908,167.015617 143.338754,177.520484 150.494985,195.700867 L106.676723,177.582438 C104.546308,176.70175 102.363431,176.038852 100.153846,175.583258 L100.153846,122 C100.153846,138.172148 110.680969,147.762969 121.826662,157.917086 Z M35.2536769,47.65625 C31.7945538,38.6496953 29.4056462,27.7750156 28.7804,14.296875 L157.219123,14.296875 C156.593877,27.7750156 154.205446,38.6496953 150.745846,47.65625 L35.2536769,47.65625 Z" id="Shape"></path>
            </g>
        </g>
    </g>
</svg>