<svg xmlns="http://www.w3.org/2000/svg" width="1100" height="782" viewBox="0 0 1100 782">
    <defs>
        <clipPath id="prefix__clip-path">
            <path d="M0 0H1100V623H0z" style="fill:none"/>
        </clipPath>
        <style>
            .prefix__cls-9{fill:none}.prefix__cls-4,.prefix__cls-7{fill:#fff;font-family:NotoSansCJKkr-Bold,Noto Sans CJK KR;font-weight:700}.prefix__cls-4{font-size:18px;isolation:isolate}.prefix__cls-5{fill:#2b2c3b}.prefix__cls-6{fill:#717c90}.prefix__cls-7{font-size:15px}.prefix__cls-9{stroke:#fff;stroke-linecap:round;stroke-miterlimit:10;stroke-width:2px}.prefix__cls-11{font-size:17px;font-family:NotoSansCJKkr-Regular,Noto Sans CJK KR;fill:#bce0fd}
        </style>
    </defs>
    <g id="prefix__그룹_4269" data-name="그룹 4269" transform="translate(-290 -214)">
        <rect id="prefix__사각형_1631" width="1100" height="50" data-name="사각형 1631" rx="6" transform="translate(290 214)" style="fill:#17181c"/>
        <path id="prefix__사각형_2020" d="M0 0H136V50H0z" data-name="사각형 2020" transform="translate(290 214)" style="fill:red;opacity:0"/>
        <text id="prefix__기계명" class="prefix__cls-4" transform="translate(327 247)">
            <tspan x="0" y="0">기계명</tspan>
        </text>
        <text id="prefix__기계_번호" class="prefix__cls-4" data-name="기계 번호" transform="translate(616 247)">
            <tspan x="0" y="0">기계 번호</tspan>
        </text>
        <text id="prefix__작성자" class="prefix__cls-4" transform="translate(869 247)">
            <tspan x="0" y="0">작성자</tspan>
        </text>
        <text id="prefix__저장_날짜" class="prefix__cls-4" data-name="저장 날짜" transform="translate(1063 247)">
            <tspan x="0" y="0">저장 날짜</tspan>
        </text>
        <path id="prefix__사각형_3345" d="M0 0H1100V50H0z" class="prefix__cls-5" data-name="사각형 3345" transform="translate(290 282)"/>
        <text id="prefix__테스트용_프레스_02" class="prefix__cls-4" data-name="테스트용 프레스 02" transform="translate(327 315)">
            <tspan x="0" y="0">테스트용 프레스 02</tspan>
        </text>
        <text id="prefix___000-456-789" class="prefix__cls-4" data-name="000-456-789" transform="translate(616 315)">
            <tspan x="0" y="0">000-456-789</tspan>
        </text>
        <text id="prefix__홍길동" class="prefix__cls-4" transform="translate(869 315)">
            <tspan x="0" y="0">홍길동</tspan>
        </text>
        <rect id="prefix__사각형_2015" width="88" height="30" class="prefix__cls-6" data-name="사각형 2015" rx="6" transform="translate(1278 292)"/>
        <text id="prefix__자세히_보기" class="prefix__cls-7" data-name="자세히 보기" transform="translate(1322 313)">
            <tspan x="-36.202" y="0">자세히 보기</tspan>
        </text>
        <text id="prefix___20200602" class="prefix__cls-4" data-name="20200602" transform="translate(1063 315)">
            <tspan x="0" y="0">20200602</tspan>
        </text>
        <g id="prefix__반복_그리드_9" data-name="반복 그리드 9" transform="translate(290 334)">
            <g transform="translate(-290 -359)">
                <path id="prefix__사각형_3450" d="M0 0H1100V50H0z" class="prefix__cls-5" data-name="사각형 3450" transform="translate(290 359)"/>
                <text id="prefix__테스트용_프레스_00" class="prefix__cls-4" data-name="테스트용 프레스 00" transform="translate(327 392)">
                    <tspan x="0" y="0">테스트용 프레스 00</tspan>
                </text>
                <text id="prefix___000-000-00000" class="prefix__cls-4" data-name="000-000-00000" transform="translate(616 392)">
                    <tspan x="0" y="0">000-000-00000</tspan>
                </text>
                <text id="prefix__홍길동-2" class="prefix__cls-4" data-name="홍길동" transform="translate(869 392)">
                    <tspan x="0" y="0">홍길동</tspan>
                </text>
                <rect id="prefix__사각형_3451" width="88" height="30" class="prefix__cls-6" data-name="사각형 3451" rx="6" transform="translate(1278 369)"/>
                <text id="prefix__자세히_보기-2" class="prefix__cls-7" data-name="자세히 보기" transform="translate(1322 390)">
                    <tspan x="-36.202" y="0">자세히 보기</tspan>
                </text>
                <text id="prefix___20000000" class="prefix__cls-4" data-name="20000000" transform="translate(1063 392)">
                    <tspan x="0" y="0">20000000</tspan>
                </text>
            </g>
            <g transform="translate(-290 -307)">
                <path id="prefix__사각형_3450-2" d="M0 0H1100V50H0z" class="prefix__cls-5" data-name="사각형 3450" transform="translate(290 359)"/>
                <text id="prefix__테스트용_프레스_00-2" class="prefix__cls-4" data-name="테스트용 프레스 00" transform="translate(327 392)">
                    <tspan x="0" y="0">테스트용 프레스 00</tspan>
                </text>
                <text id="prefix___000-000-00000-2" class="prefix__cls-4" data-name="000-000-00000" transform="translate(616 392)">
                    <tspan x="0" y="0">000-000-00000</tspan>
                </text>
                <text id="prefix__홍길동-3" class="prefix__cls-4" data-name="홍길동" transform="translate(869 392)">
                    <tspan x="0" y="0">홍길동</tspan>
                </text>
                <rect id="prefix__사각형_3451-2" width="88" height="30" class="prefix__cls-6" data-name="사각형 3451" rx="6" transform="translate(1278 369)"/>
                <text id="prefix__자세히_보기-3" class="prefix__cls-7" data-name="자세히 보기" transform="translate(1322 390)">
                    <tspan x="-36.202" y="0">자세히 보기</tspan>
                </text>
                <text id="prefix___20000000-2" class="prefix__cls-4" data-name="20000000" transform="translate(1063 392)">
                    <tspan x="0" y="0">20000000</tspan>
                </text>
            </g>
            <g transform="translate(-290 -255)">
                <path id="prefix__사각형_3450-3" d="M0 0H1100V50H0z" class="prefix__cls-5" data-name="사각형 3450" transform="translate(290 359)"/>
                <text id="prefix__테스트용_프레스_00-3" class="prefix__cls-4" data-name="테스트용 프레스 00" transform="translate(327 392)">
                    <tspan x="0" y="0">테스트용 프레스 00</tspan>
                </text>
                <text id="prefix___000-000-00000-3" class="prefix__cls-4" data-name="000-000-00000" transform="translate(616 392)">
                    <tspan x="0" y="0">000-000-00000</tspan>
                </text>
                <text id="prefix__홍길동-4" class="prefix__cls-4" data-name="홍길동" transform="translate(869 392)">
                    <tspan x="0" y="0">홍길동</tspan>
                </text>
                <rect id="prefix__사각형_3451-3" width="88" height="30" class="prefix__cls-6" data-name="사각형 3451" rx="6" transform="translate(1278 369)"/>
                <text id="prefix__자세히_보기-4" class="prefix__cls-7" data-name="자세히 보기" transform="translate(1322 390)">
                    <tspan x="-36.202" y="0">자세히 보기</tspan>
                </text>
                <text id="prefix___20000000-3" class="prefix__cls-4" data-name="20000000" transform="translate(1063 392)">
                    <tspan x="0" y="0">20000000</tspan>
                </text>
            </g>
            <g transform="translate(-290 -203)">
                <path id="prefix__사각형_3450-4" d="M0 0H1100V50H0z" class="prefix__cls-5" data-name="사각형 3450" transform="translate(290 359)"/>
                <text id="prefix__테스트용_프레스_00-4" class="prefix__cls-4" data-name="테스트용 프레스 00" transform="translate(327 392)">
                    <tspan x="0" y="0">테스트용 프레스 00</tspan>
                </text>
                <text id="prefix___000-000-00000-4" class="prefix__cls-4" data-name="000-000-00000" transform="translate(616 392)">
                    <tspan x="0" y="0">000-000-00000</tspan>
                </text>
                <text id="prefix__홍길동-5" class="prefix__cls-4" data-name="홍길동" transform="translate(869 392)">
                    <tspan x="0" y="0">홍길동</tspan>
                </text>
                <rect id="prefix__사각형_3451-4" width="88" height="30" class="prefix__cls-6" data-name="사각형 3451" rx="6" transform="translate(1278 369)"/>
                <text id="prefix__자세히_보기-5" class="prefix__cls-7" data-name="자세히 보기" transform="translate(1322 390)">
                    <tspan x="-36.202" y="0">자세히 보기</tspan>
                </text>
                <text id="prefix___20000000-4" class="prefix__cls-4" data-name="20000000" transform="translate(1063 392)">
                    <tspan x="0" y="0">20000000</tspan>
                </text>
            </g>
            <g transform="translate(-290 -151)">
                <path id="prefix__사각형_3450-5" d="M0 0H1100V50H0z" class="prefix__cls-5" data-name="사각형 3450" transform="translate(290 359)"/>
                <text id="prefix__테스트용_프레스_00-5" class="prefix__cls-4" data-name="테스트용 프레스 00" transform="translate(327 392)">
                    <tspan x="0" y="0">테스트용 프레스 00</tspan>
                </text>
                <text id="prefix___000-000-00000-5" class="prefix__cls-4" data-name="000-000-00000" transform="translate(616 392)">
                    <tspan x="0" y="0">000-000-00000</tspan>
                </text>
                <text id="prefix__홍길동-6" class="prefix__cls-4" data-name="홍길동" transform="translate(869 392)">
                    <tspan x="0" y="0">홍길동</tspan>
                </text>
                <rect id="prefix__사각형_3451-5" width="88" height="30" class="prefix__cls-6" data-name="사각형 3451" rx="6" transform="translate(1278 369)"/>
                <text id="prefix__자세히_보기-6" class="prefix__cls-7" data-name="자세히 보기" transform="translate(1322 390)">
                    <tspan x="-36.202" y="0">자세히 보기</tspan>
                </text>
                <text id="prefix___20000000-5" class="prefix__cls-4" data-name="20000000" transform="translate(1063 392)">
                    <tspan x="0" y="0">20000000</tspan>
                </text>
            </g>
            <g transform="translate(-290 -99)">
                <path id="prefix__사각형_3450-6" d="M0 0H1100V50H0z" class="prefix__cls-5" data-name="사각형 3450" transform="translate(290 359)"/>
                <text id="prefix__테스트용_프레스_00-6" class="prefix__cls-4" data-name="테스트용 프레스 00" transform="translate(327 392)">
                    <tspan x="0" y="0">테스트용 프레스 00</tspan>
                </text>
                <text id="prefix___000-000-00000-6" class="prefix__cls-4" data-name="000-000-00000" transform="translate(616 392)">
                    <tspan x="0" y="0">000-000-00000</tspan>
                </text>
                <text id="prefix__홍길동-7" class="prefix__cls-4" data-name="홍길동" transform="translate(869 392)">
                    <tspan x="0" y="0">홍길동</tspan>
                </text>
                <rect id="prefix__사각형_3451-6" width="88" height="30" class="prefix__cls-6" data-name="사각형 3451" rx="6" transform="translate(1278 369)"/>
                <text id="prefix__자세히_보기-7" class="prefix__cls-7" data-name="자세히 보기" transform="translate(1322 390)">
                    <tspan x="-36.202" y="0">자세히 보기</tspan>
                </text>
                <text id="prefix___20000000-6" class="prefix__cls-4" data-name="20000000" transform="translate(1063 392)">
                    <tspan x="0" y="0">20000000</tspan>
                </text>
            </g>
            <g transform="translate(-290 -47)">
                <path id="prefix__사각형_3450-7" d="M0 0H1100V50H0z" class="prefix__cls-5" data-name="사각형 3450" transform="translate(290 359)"/>
                <text id="prefix__테스트용_프레스_00-7" class="prefix__cls-4" data-name="테스트용 프레스 00" transform="translate(327 392)">
                    <tspan x="0" y="0">테스트용 프레스 00</tspan>
                </text>
                <text id="prefix___000-000-00000-7" class="prefix__cls-4" data-name="000-000-00000" transform="translate(616 392)">
                    <tspan x="0" y="0">000-000-00000</tspan>
                </text>
                <text id="prefix__홍길동-8" class="prefix__cls-4" data-name="홍길동" transform="translate(869 392)">
                    <tspan x="0" y="0">홍길동</tspan>
                </text>
                <rect id="prefix__사각형_3451-7" width="88" height="30" class="prefix__cls-6" data-name="사각형 3451" rx="6" transform="translate(1278 369)"/>
                <text id="prefix__자세히_보기-8" class="prefix__cls-7" data-name="자세히 보기" transform="translate(1322 390)">
                    <tspan x="-36.202" y="0">자세히 보기</tspan>
                </text>
                <text id="prefix___20000000-7" class="prefix__cls-4" data-name="20000000" transform="translate(1063 392)">
                    <tspan x="0" y="0">20000000</tspan>
                </text>
            </g>
            <g transform="translate(-290 5)">
                <path id="prefix__사각형_3450-8" d="M0 0H1100V50H0z" class="prefix__cls-5" data-name="사각형 3450" transform="translate(290 359)"/>
                <text id="prefix__테스트용_프레스_00-8" class="prefix__cls-4" data-name="테스트용 프레스 00" transform="translate(327 392)">
                    <tspan x="0" y="0">테스트용 프레스 00</tspan>
                </text>
                <text id="prefix___000-000-00000-8" class="prefix__cls-4" data-name="000-000-00000" transform="translate(616 392)">
                    <tspan x="0" y="0">000-000-00000</tspan>
                </text>
                <text id="prefix__홍길동-9" class="prefix__cls-4" data-name="홍길동" transform="translate(869 392)">
                    <tspan x="0" y="0">홍길동</tspan>
                </text>
                <rect id="prefix__사각형_3451-8" width="88" height="30" class="prefix__cls-6" data-name="사각형 3451" rx="6" transform="translate(1278 369)"/>
                <text id="prefix__자세히_보기-9" class="prefix__cls-7" data-name="자세히 보기" transform="translate(1322 390)">
                    <tspan x="-36.202" y="0">자세히 보기</tspan>
                </text>
                <text id="prefix___20000000-8" class="prefix__cls-4" data-name="20000000" transform="translate(1063 392)">
                    <tspan x="0" y="0">20000000</tspan>
                </text>
            </g>
            <g transform="translate(-290 57)">
                <path id="prefix__사각형_3450-9" d="M0 0H1100V50H0z" class="prefix__cls-5" data-name="사각형 3450" transform="translate(290 359)"/>
                <text id="prefix__테스트용_프레스_00-9" class="prefix__cls-4" data-name="테스트용 프레스 00" transform="translate(327 392)">
                    <tspan x="0" y="0">테스트용 프레스 00</tspan>
                </text>
                <text id="prefix___000-000-00000-9" class="prefix__cls-4" data-name="000-000-00000" transform="translate(616 392)">
                    <tspan x="0" y="0">000-000-00000</tspan>
                </text>
                <text id="prefix__홍길동-10" class="prefix__cls-4" data-name="홍길동" transform="translate(869 392)">
                    <tspan x="0" y="0">홍길동</tspan>
                </text>
                <rect id="prefix__사각형_3451-9" width="88" height="30" class="prefix__cls-6" data-name="사각형 3451" rx="6" transform="translate(1278 369)"/>
                <text id="prefix__자세히_보기-10" class="prefix__cls-7" data-name="자세히 보기" transform="translate(1322 390)">
                    <tspan x="-36.202" y="0">자세히 보기</tspan>
                </text>
                <text id="prefix___20000000-9" class="prefix__cls-4" data-name="20000000" transform="translate(1063 392)">
                    <tspan x="0" y="0">20000000</tspan>
                </text>
            </g>
            <g transform="translate(-290 109)">
                <path id="prefix__사각형_3450-10" d="M0 0H1100V50H0z" class="prefix__cls-5" data-name="사각형 3450" transform="translate(290 359)"/>
                <text id="prefix__테스트용_프레스_00-10" class="prefix__cls-4" data-name="테스트용 프레스 00" transform="translate(327 392)">
                    <tspan x="0" y="0">테스트용 프레스 00</tspan>
                </text>
                <text id="prefix___000-000-00000-10" class="prefix__cls-4" data-name="000-000-00000" transform="translate(616 392)">
                    <tspan x="0" y="0">000-000-00000</tspan>
                </text>
                <text id="prefix__홍길동-11" class="prefix__cls-4" data-name="홍길동" transform="translate(869 392)">
                    <tspan x="0" y="0">홍길동</tspan>
                </text>
                <rect id="prefix__사각형_3451-10" width="88" height="30" class="prefix__cls-6" data-name="사각형 3451" rx="6" transform="translate(1278 369)"/>
                <text id="prefix__자세히_보기-11" class="prefix__cls-7" data-name="자세히 보기" transform="translate(1322 390)">
                    <tspan x="-36.202" y="0">자세히 보기</tspan>
                </text>
                <text id="prefix___20000000-10" class="prefix__cls-4" data-name="20000000" transform="translate(1063 392)">
                    <tspan x="0" y="0">20000000</tspan>
                </text>
            </g>
            <g transform="translate(-290 161)">
                <path id="prefix__사각형_3450-11" d="M0 0H1100V50H0z" class="prefix__cls-5" data-name="사각형 3450" transform="translate(290 359)"/>
                <text id="prefix__테스트용_프레스_00-11" class="prefix__cls-4" data-name="테스트용 프레스 00" transform="translate(327 392)">
                    <tspan x="0" y="0">테스트용 프레스 00</tspan>
                </text>
                <text id="prefix___000-000-00000-11" class="prefix__cls-4" data-name="000-000-00000" transform="translate(616 392)">
                    <tspan x="0" y="0">000-000-00000</tspan>
                </text>
                <text id="prefix__홍길동-12" class="prefix__cls-4" data-name="홍길동" transform="translate(869 392)">
                    <tspan x="0" y="0">홍길동</tspan>
                </text>
                <rect id="prefix__사각형_3451-11" width="88" height="30" class="prefix__cls-6" data-name="사각형 3451" rx="6" transform="translate(1278 369)"/>
                <text id="prefix__자세히_보기-12" class="prefix__cls-7" data-name="자세히 보기" transform="translate(1322 390)">
                    <tspan x="-36.202" y="0">자세히 보기</tspan>
                </text>
                <text id="prefix___20000000-11" class="prefix__cls-4" data-name="20000000" transform="translate(1063 392)">
                    <tspan x="0" y="0">20000000</tspan>
                </text>
            </g>
            <g transform="translate(-290 213)">
                <path id="prefix__사각형_3450-12" d="M0 0H1100V50H0z" class="prefix__cls-5" data-name="사각형 3450" transform="translate(290 359)"/>
                <text id="prefix__테스트용_프레스_00-12" class="prefix__cls-4" data-name="테스트용 프레스 00" transform="translate(327 392)">
                    <tspan x="0" y="0">테스트용 프레스 00</tspan>
                </text>
                <text id="prefix___000-000-00000-12" class="prefix__cls-4" data-name="000-000-00000" transform="translate(616 392)">
                    <tspan x="0" y="0">000-000-00000</tspan>
                </text>
                <text id="prefix__홍길동-13" class="prefix__cls-4" data-name="홍길동" transform="translate(869 392)">
                    <tspan x="0" y="0">홍길동</tspan>
                </text>
                <rect id="prefix__사각형_3451-12" width="88" height="30" class="prefix__cls-6" data-name="사각형 3451" rx="6" transform="translate(1278 369)"/>
                <text id="prefix__자세히_보기-13" class="prefix__cls-7" data-name="자세히 보기" transform="translate(1322 390)">
                    <tspan x="-36.202" y="0">자세히 보기</tspan>
                </text>
                <text id="prefix___20000000-12" class="prefix__cls-4" data-name="20000000" transform="translate(1063 392)">
                    <tspan x="0" y="0">20000000</tspan>
                </text>
            </g>
        </g>
        <g id="prefix__그룹_3226" data-name="그룹 3226" transform="translate(230.999 76)">
            <path id="prefix__패스_2135" d="M.71.71l4.405 5.052a.705.705 0 0 1 0 .9l-4.369 5.01" class="prefix__cls-9" data-name="패스 2135" transform="rotate(180 254.139 458.105)"/>
            <path id="prefix__패스_2136" d="M.71.71l4.405 5.052a.705.705 0 0 1 0 .9l-4.369 5.01" class="prefix__cls-9" data-name="패스 2136" transform="translate(710.291 903.828)"/>
            <text id="prefix___1" data-name="1" transform="translate(532 915)" style="font-size:17px;font-family:NotoSansCJKkr-Regular,Noto Sans CJK KR;fill:#19b9df">
                <tspan x="-4.718" y="0">1</tspan>
            </text>
            <text id="prefix___2" class="prefix__cls-11" data-name="2" transform="translate(570 915)">
                <tspan x="-4.718" y="0">2</tspan>
            </text>
            <text id="prefix___3" class="prefix__cls-11" data-name="3" transform="translate(609 915)">
                <tspan x="-4.718" y="0">3</tspan>
            </text>
            <text id="prefix___4" class="prefix__cls-11" data-name="4" transform="translate(649 915)">
                <tspan x="-4.718" y="0">4</tspan>
            </text>
            <text id="prefix___5" class="prefix__cls-11" data-name="5" transform="translate(687 915)">
                <tspan x="-4.718" y="0">5</tspan>
            </text>
        </g>
    </g>
</svg>
