<?xml version="1.0" encoding="UTF-8"?>
<svg width="264px" height="264px" viewBox="0 0 264 264" version="1.1" xmlns="http://www.w3.org/2000/svg" xmlns:xlink="http://www.w3.org/1999/xlink">
    <!-- Generator: Sketch 53.2 (72643) - https://sketchapp.com -->
    <title>press</title>
    <desc>Created with Sketch.</desc>
    <g id="Page-1" stroke="none" stroke-width="1" fill="none" fill-rule="evenodd">
        <g id="Artboard" transform="translate(-712.000000, -512.000000)" fill="#FFFFFF" fill-rule="nonzero">
            <g id="settings" transform="translate(724.000000, 553.000000)">
                <path d="M0,0 L0,183 L239,183 L239,0 L0,0 Z M224.996094,169.018222 L14.0039062,169.018222 L14.0039062,13.9813124 L224.996094,13.9813124 L224.996094,169.018222 Z" id="Shape"></path>
                <path d="M113.517193,109.744425 L113.517193,155 L127.482807,155 L127.482807,109.743956 C136.480386,106.776938 143,98.2440079 143,88.2010734 C143,78.1581388 136.480386,69.6252084 127.482807,66.6581909 L127.482807,56 L113.517193,56 L113.517193,66.6581909 C104.519148,69.6252084 98,78.1581388 98,88.2010734 C98,98.2440079 104.519148,106.776938 113.517193,109.744425 Z M120.5,79.6038975 C125.205946,79.6038975 129.034386,83.4605044 129.034386,88.2010734 C129.034386,92.9416424 125.205946,96.7982493 120.5,96.7982493 C115.794054,96.7982493 111.965614,92.9416424 111.965614,88.2010734 C111.965614,83.4605044 115.794054,79.6038975 120.5,79.6038975 L120.5,79.6038975 Z" id="Shape"></path>
                <path d="M52.5171932,127.04275 L52.5171932,155 L66.4828068,155 L66.4828068,127.04275 C75.4803861,124.075718 82,115.542748 82,105.499766 C82,95.4572523 75.4803861,86.9242815 66.4828068,83.95725 L66.4828068,56 L52.5171932,56 L52.5171932,83.95725 C43.5191484,86.9242815 37,95.4572523 37,105.499766 C37,115.542748 43.5191484,124.075718 52.5171932,127.04275 Z M59.5,96.9025489 C64.2059462,96.9025489 68.0343864,100.759174 68.0343864,105.499766 C68.0343864,110.240357 64.2059462,114.096982 59.5,114.096982 C54.7940538,114.096982 50.9656136,110.239888 50.9656136,105.499766 C50.9656136,100.759643 54.7940538,96.9025489 59.5,96.9025489 Z" id="Shape"></path>
                <path d="M172.517193,144.341759 L172.517193,155 L186.482807,155 L186.482807,144.341759 C195.480386,141.374727 202,132.841756 202,122.799243 C202,112.75673 195.480386,104.22329 186.482807,101.256259 L186.482807,56 L172.517193,56 L172.517193,101.256259 C163.519614,104.22329 157,112.756261 157,122.799243 C157,132.841756 163.519614,141.374727 172.517193,144.341759 L172.517193,144.341759 Z M179.5,114.201557 C184.205946,114.201557 188.034386,118.058183 188.034386,122.798774 C188.034386,127.539366 184.205946,131.395991 179.5,131.395991 C174.794054,131.395991 170.965614,127.539366 170.965614,122.798774 C170.965614,118.058183 174.794054,114.201557 179.5,114.201557 L179.5,114.201557 Z" id="Shape"></path>
                <polygon id="Path" points="38 28 52 28 52 42 38 42"></polygon>
                <polygon id="Path" points="68 28 82 28 82 42 68 42"></polygon>
                <polygon id="Path" points="98 28 112 28 112 42 98 42"></polygon>
                <polygon id="Path" points="127 28 141 28 141 42 127 42"></polygon>
                <polygon id="Path" points="157 28 171 28 171 42 157 42"></polygon>
                <polygon id="Path" points="187 28 201 28 201 42 187 42"></polygon>
            </g>
        </g>
    </g>
</svg>