<?xml version="1.0" encoding="UTF-8"?>
<svg width="264px" height="264px" viewBox="0 0 264 264" version="1.1" xmlns="http://www.w3.org/2000/svg" xmlns:xlink="http://www.w3.org/1999/xlink">
    <!-- Generator: Sketch 53.2 (72643) - https://sketchapp.com -->
    <title>press</title>
    <desc>Created with Sketch.</desc>
    <g id="Page-1" stroke="none" stroke-width="1" fill="none" fill-rule="evenodd">
        <g id="Artboard" transform="translate(-99.000000, -311.000000)" fill="#FFFFFF" fill-rule="nonzero">
            <g id="press" transform="translate(129.000000, 341.000000)">
                <path d="M0,0 L0,68.0664062 L36.0351562,68.0664062 L36.0351562,77.2753906 L34.0332031,77.2753906 C26.3060645,77.2753906 20.0195312,83.5619238 20.0195312,91.2890625 L20.0195312,109.306641 L100.097656,109.306641 L100.097656,91.2890625 C100.097656,83.5619238 93.811123,77.2753906 86.0839844,77.2753906 L84.0820312,77.2753906 L84.0820312,68.0664062 L120.117188,68.0664062 L120.117188,52.0507812 L136.933594,52.0507812 L136.933594,153.349609 L120.117188,153.349609 L120.117188,137.333984 L78.0761719,137.333984 L78.0761719,117.314453 L42.0410156,117.314453 L42.0410156,137.333984 L0,137.333984 L0,181.376953 L20.0195312,181.376953 L20.0195312,205 L205,205 L205,0 L0,0 Z M86.0839844,89.2871094 C87.1878613,89.2871094 88.0859375,90.1851855 88.0859375,91.2890625 L88.0859375,97.2949219 L32.03125,97.2949219 L32.03125,91.2890625 C32.03125,90.1851855 32.9293262,89.2871094 34.0332031,89.2871094 L86.0839844,89.2871094 Z M48.046875,77.2753906 L48.046875,68.0664063 L72.0703125,68.0664063 L72.0703125,77.2753906 L48.046875,77.2753906 Z M108.105469,56.0546875 L12.0117188,56.0546875 L12.0117188,12.0117188 L108.105469,12.0117188 L108.105469,56.0546875 Z M54.0527344,129.326172 L66.0644531,129.326172 L66.0644531,137.333984 L54.0527344,137.333984 L54.0527344,129.326172 Z M12.0117188,169.365234 L12.0117188,149.345703 L108.105469,149.345703 L108.105469,169.365234 L12.0117188,169.365234 Z M192.988281,192.988281 L32.03125,192.988281 L32.03125,181.376953 L120.117188,181.376953 L120.117188,165.361328 L148.945313,165.361328 L148.945313,40.0390625 L120.117188,40.0390625 L120.117188,12.0117188 L192.988281,12.0117188 L192.988281,192.988281 Z" id="Shape"></path>
            </g>
        </g>
    </g>
</svg>